<svg role="img" aria-label="after-talia-point" viewBox="0 0 320 213" version="1.1" xmlns="http://www.w3.org/2000/svg" desc="Created with imagetracer.js version 1.2.6" ><path fill="rgb(97,54,29)" stroke="rgb(97,54,29)" stroke-width="0" opacity="0.996078431372549" d="M 162.5 8 L 168 9.5 L 167 12.5 L 169 11.5 L 170.5 9 L 179.5 11 L 192 19 L 198.5 27 L 210 37.5 L 204.5 33 L 200.5 31 L 201 32.5 L 205 42.5 L 203 42.5 Q 201.88 45.83 204.5 45 Q 205.75 42.75 207 45.5 L 205 48.5 L 210 56 Q 212.67 54.88 212 57.5 L 213.5 60 L 207.5 55 L 208 56.5 L 206.5 62 L 205 61.5 L 205.5 65 L 208 64 L 207 69.5 L 208 73.5 L 207 73.5 L 204.5 66 L 201 76.5 Q 201.9 84.85 200 89 Q 195.75 90 194.5 87 Q 193.28 93.78 188.5 97 L 188.5 95 L 181.5 96 L 177.5 95 L 179.5 99 L 177 97.5 L 181.5 105 L 187.5 106 L 189 105.5 L 188 107.5 L 193 114.5 L 193 119.5 L 192.5 121 L 197 118.5 L 197.5 115 L 198 118.5 L 195 123 Q 200.5 122.25 202 127.5 L 207 142.5 L 198.5 152 L 192 153 Q 193.5 156.75 190.5 156 L 188.5 157 L 184 154.5 L 183.5 152 L 182 152.5 L 180.5 149 L 177.5 153 L 178 151.5 Q 179.67 146.69 175.5 148 L 175.5 147 L 177 146.5 L 175.5 144 L 169 146.5 L 171 147.5 L 164 151 L 163.5 153 L 162.5 151 L 161 154 L 149.5 155 L 149.5 154 Q 155.5 155.5 157 152.5 L 148.5 151 L 147.5 154 L 142.5 151 L 141.5 153 L 141 151 L 136 153.5 L 134 165.5 L 130 171 L 125 174.5 L 124.5 176 L 124 174.5 L 127 156.5 L 125 156.5 L 126 154.5 L 124 154.5 L 126.5 151 L 127.5 156 L 142.5 139 L 149 133.5 L 150.5 132 Q 153.45 137.05 162 136.5 L 161 138.5 L 163.5 137 Q 170.57 136.07 174 131.5 L 172.5 127 Q 166.36 130.86 154.5 129 L 153 126.5 L 156 119 Q 163.04 120.2 167 117.5 L 164 112.5 L 166.5 112 L 169.5 111 L 170 113.5 L 169.5 115 L 172.5 117 L 176 114.5 L 177 111.5 L 173.5 107 L 171.5 108 L 165.5 98 L 164.5 102 L 163 96 L 161 95.5 L 167.5 94 L 167.5 95 L 165 95.5 L 171.5 104 L 174.5 106 L 174 104.5 L 172.5 101 L 171 101.5 Q 169.13 96.1 172.5 97 L 174.5 98 L 173.5 96 L 170 93.5 Q 178.81 92.31 183 86.5 Q 182.17 83.88 185.5 85 L 189 80.5 L 186.5 82 L 184 81.5 L 189 78.5 L 188.5 77 L 186 78.5 L 188 74.5 L 185 75.5 L 186 71.5 L 182.5 67 L 181 67.5 L 182 73.5 L 181 76 L 178 74.5 L 177.5 73 L 177 75 L 173.5 73 L 172 73.5 Q 171.61 67.11 175.5 65 L 182.5 64 L 187 66 L 188 71 Q 191.67 72.35 190 66.5 Q 193.33 62.83 192 54.5 L 190 46.5 L 191 46.5 L 191.5 48 L 192.5 44 L 193 47.5 L 192 49.5 L 193 50.5 L 193 64.5 L 189 76.5 L 191 75.5 Q 190.33 72.88 193 74 L 193 71.5 Q 197.92 66.25 197 56 L 200 54.5 L 199 47.5 L 201.5 49 L 203 47.5 L 201 46.5 L 201.5 45 Q 197.13 46.5 198 43.5 L 198 41.5 L 192 28.5 L 192.5 27 L 190 25.5 L 186 20.5 L 188.5 22 L 190 21.5 Q 188.83 18.25 185 19 L 186 16.5 L 179.5 12 L 172.5 11 L 170 12 L 171 15.5 L 169 16.5 Q 169.83 13.88 166.5 15 L 166.5 17 L 162 13.5 L 160.5 12 L 160.5 11 L 163.5 12 L 163.5 10 L 165 9.5 L 162.5 8 Z M 189 88 L 187 91 L 184 93 Q 181 92 182 95 L 186 94 L 190 89 L 189 88 Z M 181 106 L 178 110 L 183 117 L 186 116 L 184 110 L 184 108 L 181 106 Z M 181 117 L 180 123 L 176 123 L 178 127 Q 179 130 183 129 L 190 140 L 191 138 L 190 133 Q 182 128 181 117 Z M 152 143 L 152 145 L 159 147 L 162 145 L 161 143 L 157 144 L 152 143 Z M 151 146 L 149 148 L 151 150 Q 155 151 154 148 L 156 148 L 153 146 L 151 146 Z " /><path fill="rgb(97,54,29)" stroke="rgb(97,54,29)" stroke-width="0" opacity="0.996078431372549" d="M 198.5 12 Q 204.11 14.39 204 22.5 L 202 23.5 L 203 18.5 L 198.5 12 Z " /><path fill="rgb(97,54,29)" stroke="rgb(97,54,29)" stroke-width="0" opacity="0.996078431372549" d="M 159.5 16 Q 165 15 166 18.5 Q 166.58 21.25 160.5 20 Q 151.29 22.29 146.5 29 L 148 26.5 L 154.5 19 L 159.5 16 Z " /><path fill="rgb(97,54,29)" stroke="rgb(97,54,29)" stroke-width="0" opacity="0.996078431372549" d="M 173.5 17 L 182 22.5 L 191 38.5 L 190 38.5 L 184 27 L 172.5 20 L 170.5 20 L 169 19.5 L 173.5 17 Z " /><path fill="rgb(97,54,29)" stroke="rgb(97,54,29)" stroke-width="0" opacity="0.996078431372549" d="M 122.5 49 L 122 50.5 L 120 55 Q 117.33 56.13 118 53.5 L 118.5 52 L 117 51.5 L 122.5 49 Z " /><path fill="rgb(97,54,29)" stroke="rgb(97,54,29)" stroke-width="0" opacity="0.996078431372549" d="M 136.5 49 L 137 55.5 L 136 57.5 L 138 57.5 L 137 62 Q 140.21 59.04 147.5 59 L 154 62.5 L 155 64.5 L 153.5 65 L 152 64.5 L 151.5 71 Q 149.5 67 147.5 71 L 144.5 69 L 143 71.5 L 143.5 73 Q 140.17 71.33 141 65.5 L 142.5 63 L 138 66.5 L 137.5 70 L 137 68 Q 134.33 69.13 135 66.5 Q 132.75 65.25 135.5 64 L 137 62.5 L 135 62.5 Q 133.88 53.88 136.5 49 Z " /><path fill="rgb(97,54,29)" stroke="rgb(97,54,29)" stroke-width="0" opacity="0.996078431372549" d="M 123.5 55 L 125 66.5 Q 122.2 68.2 123 73.5 L 128.5 80 L 133.5 82 L 138 81 L 142.5 87 L 147 89.5 L 145.5 92 Q 144.25 89.75 143 92.5 L 146 94.5 L 147 99.5 L 146 99.5 L 142.5 95 L 137.5 97 L 135.5 97 L 130.5 96 L 125.5 105 L 126 103.5 L 125.5 102 L 117 107.5 L 114.5 111 L 111 112 Q 112.5 118.29 108.5 120 Q 105.88 119.33 107 122 L 112 123.5 L 109.5 130 Q 106.17 128.88 107 131.5 L 107.5 133 L 105 131.5 L 104.5 130 L 103.5 131 L 101 129.5 L 101 131 L 98 131 Q 99.13 133.67 96.5 133 L 95 133.5 L 95.5 132 Q 92.17 133.13 93 130.5 L 91 125.5 L 92 125.5 L 94.5 131 L 97.5 127 L 95 126.5 L 98 124.5 L 96 124 L 95 118.5 L 97 117.5 L 99.5 121 L 100 119 L 103.5 118 L 103 119.5 L 103.5 121 L 108 117.5 L 109 115.5 L 105.5 114 L 101 117 L 100 109 L 97.5 110 L 100.5 106 L 101 109 L 105 107.5 Q 108 104.5 107 97.5 L 105 97.5 L 106 95.5 L 104.5 96 L 102.5 97 L 103.5 95 L 107 94 L 108 98 Q 110.67 99.13 110 96.5 L 111 96.5 L 111.5 98 Q 116.31 95.81 115 87.5 L 111.5 84 L 110.5 85 L 109 84.5 Q 113.5 82 108 79.5 Q 108.83 76.88 105.5 78 L 101 74.5 L 101.5 67 L 102 75 L 107 77 L 107.5 75 L 108 78 L 111.5 80 L 112 78.5 L 111 75.5 L 112 75.5 L 114.5 81 L 118 83 L 118.5 79 L 120 79.5 L 118.5 74 L 117.5 77 Q 114.8 73.2 116 65.5 L 117.5 62 L 118 68.5 L 119.5 70 Q 119.07 60.07 123.5 55 Z M 126 87 L 120 90 L 118 93 L 121 92 L 120 94 L 123 95 Q 126 96 125 94 L 127 94 L 130 94 L 129 93 L 131 90 L 126 87 Z M 115 97 L 112 99 L 109 103 L 111 102 L 111 104 L 117 103 L 119 103 Q 118 100 121 101 L 122 99 Q 120 96 115 97 Z M 110 105 L 108 106 L 104 111 L 107 112 L 114 108 L 110 105 Z M 106 123 L 106 124 Q 108 123 107 126 L 104 127 L 109 128 L 110 125 Q 111 121 106 123 Z " /><path fill="rgb(97,54,29)" stroke="rgb(97,54,29)" stroke-width="0" opacity="0.996078431372549" d="M 151.5 98 L 153 98.5 L 152 101.5 Q 154.83 104.17 154 110.5 L 145.5 126 L 143.5 127 L 140.5 125 L 138.5 128 L 135.5 126 L 133 127.5 L 131.5 125 L 127 126 L 125.5 122 L 124 122.5 L 126 116.5 Q 123.5 115 127 113.5 Q 125.17 107.37 132.5 110 L 138.5 111 L 142 113.5 L 143.5 118 L 146.5 114 L 148 114.5 Q 149.38 104.94 147 101 L 151.5 98 Z " /><path fill="rgb(97,54,29)" stroke="rgb(97,54,29)" stroke-width="0" opacity="0.996078431372549" d="M 113.5 136 L 111.5 139 Q 108.5 138.5 110 145.5 L 106.5 143 Q 100.92 143.08 99 139.5 L 100.5 140 L 108.5 144 L 109 142.5 L 104 138.5 L 105.5 139 Q 111.86 139.86 113.5 136 Z " /><path fill="rgb(97,54,29)" stroke="rgb(97,54,29)" stroke-width="0" opacity="0.996078431372549" d="M 168.5 154 Q 179.5 151.5 182 157.5 L 179.5 164 L 177.5 160 Q 174.83 157.17 168.5 158 L 164 160 Q 165 163 162 162 Q 161.92 157.12 165.5 155 L 168.5 154 Z " /><path fill="rgb(97,54,29)" stroke="rgb(97,54,29)" stroke-width="0" opacity="0.996078431372549" d="M 142.5 158 L 146.5 163 L 154.5 164 L 159 160.5 L 159.5 159 L 160 160.5 L 157.5 166 L 150.5 168 L 143.5 166 Q 140.75 167.25 142 172.5 L 144 176 L 149.5 177 L 153 174.5 L 154.5 172 L 155 176.5 L 151 182.5 Q 153.5 184 150 185.5 L 149 192.5 L 146.5 195 Q 140.25 196.25 139 192.5 L 137 181.5 L 138 177.5 L 137 171.5 L 143 162.5 L 142.5 158 Z " /><path fill="rgb(97,54,29)" stroke="rgb(97,54,29)" stroke-width="0" opacity="0.996078431372549" d="M 162.5 172 L 162 173.5 L 165 177.5 L 164 180.5 Q 165.75 178.92 167.5 182 L 171 182 Q 169.88 179.33 172.5 180 L 172.5 179 L 171 178.5 L 175 176.5 L 176.5 174 L 178 177.5 Q 175.25 179.25 177 185.5 L 175.5 187 L 174 188.5 L 172 192.5 L 172 194.5 L 170 203.5 L 167.5 206 L 160.5 207 L 156 203.5 L 159 185.5 L 158 179.5 L 162.5 172 Z " /><path fill="rgb(97,54,29)" stroke="rgb(97,54,29)" stroke-width="0" opacity="0.996078431372549" d="M 116.5 181 L 117.5 184 L 123 187.5 L 122.5 189 Q 120.25 184.75 118 186.5 L 115 182.5 L 116.5 181 Z " /><path fill="rgb(236,199,171)" stroke="rgb(236,199,171)" stroke-width="0" opacity="0.996078431372549" d="M 191.5 7 L 194 8.5 L 194.5 10 L 196 9.5 Q 194.75 12.25 193.5 10 L 192 9.5 L 192.5 8 L 189.5 9 L 189.5 8 L 191.5 7 Z " /><path fill="rgb(236,199,171)" stroke="rgb(236,199,171)" stroke-width="0" opacity="0.996078431372549" d="M 143.5 10 L 145 10.5 L 138 14.5 L 138 16.5 L 137 18.5 L 138 19.5 L 132.5 25 L 132 22.5 L 134 18.5 L 132.5 18 L 120.5 29 L 118 28.5 L 124 24.5 L 123.5 23 L 121 24.5 L 130 16.5 L 129.5 18 L 133 15.5 Q 130.75 14.25 133.5 13 L 133.5 15 L 143.5 10 Z " /><path fill="rgb(236,199,171)" stroke="rgb(236,199,171)" stroke-width="0" opacity="0.996078431372549" d="M 197.5 10 L 200.5 16 L 196 11.5 L 197.5 10 Z " /><path fill="rgb(236,199,171)" stroke="rgb(236,199,171)" stroke-width="0" opacity="0.996078431372549" d="M 139.5 20 L 141 20.5 L 136.5 28 L 135.5 26 L 131 29.5 L 139.5 20 Z " /><path fill="rgb(236,199,171)" stroke="rgb(236,199,171)" stroke-width="0" opacity="0.996078431372549" d="M 202.5 20 L 203 22.5 L 201.5 26 L 200 26.5 L 200.5 28 L 198.5 25 L 200 25.5 L 202.5 20 Z " /><path fill="rgb(236,199,171)" stroke="rgb(236,199,171)" stroke-width="0" opacity="0.996078431372549" d="M 139.5 26 L 141.5 29 L 143 29.5 L 137.5 32 L 137 30.5 L 139.5 26 Z " /><path fill="rgb(236,199,171)" stroke="rgb(236,199,171)" stroke-width="0" opacity="0.996078431372549" d="M 201.5 32 L 202.5 34 Q 204.25 31.25 206 35.5 L 203 34.5 L 202.5 36 L 201.5 32 Z " /><path fill="rgb(236,199,171)" stroke="rgb(236,199,171)" stroke-width="0" opacity="0.996078431372549" d="M 148.5 33 L 149 35 Q 152.75 33.5 152 36.5 L 147.5 39 L 146 37.5 L 148.5 33 Z " /><path fill="rgb(236,199,171)" stroke="rgb(236,199,171)" stroke-width="0" opacity="0.996078431372549" d="M 114.5 35 L 109 41.5 L 105.5 47 L 106 45.5 L 114.5 35 Z " /><path fill="rgb(236,199,171)" stroke="rgb(236,199,171)" stroke-width="0" opacity="0.996078431372549" d="M 112.5 41 L 113 43.5 L 111.5 46 L 110.5 44 L 108 45.5 L 112.5 41 Z " /><path fill="rgb(236,199,171)" stroke="rgb(236,199,171)" stroke-width="0" opacity="0.996078431372549" d="M 154.5 44 L 156 51.5 L 154.5 51 Q 150.12 52.5 151 49.5 L 154.5 44 Z " /><path fill="rgb(236,199,171)" stroke="rgb(236,199,171)" stroke-width="0" opacity="0.996078431372549" d="M 180 47 Q 182.67 45.87 182 48.5 L 185 56.5 L 183.5 56 L 179 55 L 180 47 Z " /><path fill="rgb(236,199,171)" stroke="rgb(236,199,171)" stroke-width="0" opacity="0.996078431372549" d="M 95.5 48 L 99 54.5 Q 96.75 55.75 99.5 57 L 103 58.5 L 101.5 59 L 95 53.5 L 96 51.5 L 95.5 48 Z " /><path fill="rgb(236,199,171)" stroke="rgb(236,199,171)" stroke-width="0" opacity="0.996078431372549" d="M 221 50 Q 224 48.75 223 52.5 L 220.5 54 L 217 52.5 L 219.5 52 L 221.5 53 L 221 51.5 L 221 50 Z " /><path fill="rgb(236,199,171)" stroke="rgb(236,199,171)" stroke-width="0" opacity="0.996078431372549" d="M 149.5 52 L 157 54.5 L 160.5 64 L 161.5 60 L 164 66.5 L 162.5 69 L 166.5 68 L 169.5 70 L 169 68.5 L 173.5 61 L 174 62.5 L 173 64.5 L 174.5 64 Q 177.13 64.83 176 61.5 L 178 57 Q 183.74 55.96 186 59.5 Q 188 66.38 184 65 L 183.5 63 L 173 66 L 171 73.5 L 172.5 77 L 175.5 75 L 177 77.5 L 176.5 79 L 181 75.5 L 183 69.5 L 182.5 68 Q 186.29 69.71 185.5 76 L 188 74.5 L 182 82.5 L 183 85.5 Q 175.56 95.56 156.5 94 Q 143.67 89.83 136.5 80 L 131.5 81 L 126 78 Q 123 75.75 124 68.5 L 125 68.5 L 125.5 72 Q 126.75 69.75 128 72.5 L 129.5 77 L 142.5 81 L 141.5 79 L 140 77.5 Q 136.83 75.67 137 70.5 L 139 70.5 L 138 68.5 L 140.5 64 Q 139.75 72.25 144.5 75 L 146.5 71 L 149 72.5 Q 148.33 75.13 151 74 L 150 71.5 L 152 71.5 L 153 65.5 L 152.5 64 L 155 65.5 Q 155.5 60.5 151.5 60 L 145 59 L 149.5 52 Z M 154 82 L 155 86 L 155 85 Q 157 82 162 83 L 154 82 Z " /><path fill="rgb(236,199,171)" stroke="rgb(236,199,171)" stroke-width="0" opacity="0.996078431372549" d="M 210.5 64 L 211 74.5 L 210 74.5 L 210.5 64 Z " /><path fill="rgb(236,199,171)" stroke="rgb(236,199,171)" stroke-width="0" opacity="0.996078431372549" d="M 216.5 67 L 218 72.5 L 213.5 75 L 215.5 72 L 217 72.5 L 216.5 67 Z " /><path fill="rgb(236,199,171)" stroke="rgb(236,199,171)" stroke-width="0" opacity="0.996078431372549" d="M 105.5 68 L 106 74.5 L 105.5 76 L 107 76.5 L 105.5 77 Q 102.75 75.75 105 74.5 L 105.5 68 Z " /><path fill="rgb(236,199,171)" stroke="rgb(236,199,171)" stroke-width="0" opacity="0.996078431372549" d="M 205.5 73 L 207 76.5 L 207 78.5 L 207.5 81 L 209 80.5 Q 207.5 83.5 206 80.5 L 204 76.5 L 206 76.5 L 205.5 73 Z " /><path fill="rgb(236,199,171)" stroke="rgb(236,199,171)" stroke-width="0" opacity="0.996078431372549" d="M 106.5 83 L 108 83.5 L 104 86.5 L 102.5 90 L 102 88.5 L 106.5 83 Z " /><path fill="rgb(236,199,171)" stroke="rgb(236,199,171)" stroke-width="0" opacity="0.996078431372549" d="M 102.5 94 L 104 94.5 L 100 96.5 L 101 99 L 99 99.5 L 100 102.5 L 99 102.5 L 98.5 100 L 97.5 105 L 96 100.5 L 98 99.5 L 97 98.5 L 100.5 95 L 102.5 94 Z " /><path fill="rgb(236,199,171)" stroke="rgb(236,199,171)" stroke-width="0" opacity="0.996078431372549" d="M 146 95 Q 150.6 93.75 152 96.5 L 148.5 101 L 146 95 Z " /><path fill="rgb(236,199,171)" stroke="rgb(236,199,171)" stroke-width="0" opacity="0.996078431372549" d="M 139.5 96 Q 145.25 95.25 146 99.5 L 147 106.5 L 146 108.5 L 147 110.5 L 146 110.5 L 141.5 105 Q 134 103.5 132.5 108 L 133 106.5 L 132.5 104 L 131.5 106 L 131 104.5 L 134.5 100 L 135 101.5 L 134.5 103 L 138 101.5 L 136 100.5 L 137 98.5 L 134.5 98 L 131 97.5 L 136.5 97 Q 138 99.5 139.5 96 Z " /><path fill="rgb(236,199,171)" stroke="rgb(236,199,171)" stroke-width="0" opacity="0.996078431372549" d="M 183.5 100 L 193 105.5 L 191.5 105 L 188.5 105 L 183.5 100 Z " /><path fill="rgb(236,199,171)" stroke="rgb(236,199,171)" stroke-width="0" opacity="0.996078431372549" d="M 158.5 101 L 164 102 L 162 105.5 L 165.5 111 L 167 107.5 L 165 103.5 L 167.5 102 Q 171 103 170 108.5 L 169 111 L 164.5 112 L 156 106.5 Q 154.5 102.12 157.5 103 L 159.5 104 L 158.5 101 Z " /><path fill="rgb(236,199,171)" stroke="rgb(236,199,171)" stroke-width="0" opacity="0.996078431372549" d="M 95.5 102 L 97.5 107 L 100 105.5 L 98 108.5 L 93.5 115 L 93 113.5 L 97 107.5 Q 93.75 106.25 95.5 102 Z " /><path fill="rgb(236,199,171)" stroke="rgb(236,199,171)" stroke-width="0" opacity="0.996078431372549" d="M 118 106 L 124 106.5 L 119 107.5 L 119.5 109 L 117 108.5 L 118 106 Z " /><path fill="rgb(236,199,171)" stroke="rgb(236,199,171)" stroke-width="0" opacity="0.996078431372549" d="M 136.5 106 Q 144 105 145 110.5 L 144 114.5 L 144.5 116 Q 141.56 109.94 133 109.5 L 136.5 106 Z " /><path fill="rgb(236,199,171)" stroke="rgb(236,199,171)" stroke-width="0" opacity="0.996078431372549" d="M 121.5 109 L 125 109 Q 124 112 127 111 L 127 114 L 120.5 115 L 119 111.5 L 119.5 110 L 121.5 111 L 121.5 109 Z " /><path fill="rgb(236,199,171)" stroke="rgb(236,199,171)" stroke-width="0" opacity="0.996078431372549" d="M 182.5 109 L 184 112.5 L 185 117 Q 182 118.25 183 114.5 L 181 114.5 L 182 112.5 L 180 112 Q 178.87 109.33 181.5 110 L 182.5 109 Z " /><path fill="rgb(236,199,171)" stroke="rgb(236,199,171)" stroke-width="0" opacity="0.996078431372549" d="M 154 110 L 156 110.5 L 156 119.5 Q 151.09 135.09 138.5 143 L 131 149.5 L 127.5 155 L 128 153.5 Q 128.42 143.42 133.5 138 Q 135 140.5 136.5 137 L 138 138.5 L 139 138.5 L 141.5 134 L 144 135.5 L 144.5 134 Q 146.25 136.75 148 132.5 L 150 118.5 L 154 110 Z " /><path fill="rgb(236,199,171)" stroke="rgb(236,199,171)" stroke-width="0" opacity="0.996078431372549" d="M 124.5 123 Q 128.25 121.75 127 125.5 L 129.5 127 L 132 126 L 132.5 131 L 133.5 129 L 134 130.5 L 132.5 134 L 128.5 133 L 127 133.5 L 127.5 129 L 129 129.5 L 127.5 127 L 125 127.5 L 126 129.5 L 121.5 132 L 120 127.5 L 122.5 124 L 124.5 123 Z " /><path fill="rgb(236,199,171)" stroke="rgb(236,199,171)" stroke-width="0" opacity="0.996078431372549" d="M 170.5 128 L 174 129 L 173 133 Q 168.02 136.88 157.5 136 L 153 133.5 Q 151.88 130.17 154.5 131 L 155.5 130 L 165.5 130 L 170.5 128 Z " /><path fill="rgb(236,199,171)" stroke="rgb(236,199,171)" stroke-width="0" opacity="0.996078431372549" d="M 125.5 137 L 124.5 139 L 122 140.5 L 123 142.5 L 122 142.5 L 121.5 141 L 120.5 143 L 120 141.5 L 125.5 137 Z " /><path fill="rgb(236,199,171)" stroke="rgb(236,199,171)" stroke-width="0" opacity="0.996078431372549" d="M 170.5 148 L 177 148 L 177 154 L 169.5 153 L 164.5 156 L 164 152.5 L 170.5 148 Z " /><path fill="rgb(236,199,171)" stroke="rgb(236,199,171)" stroke-width="0" opacity="0.996078431372549" d="M 142.5 152 Q 146.5 156 154.5 156 L 159 155 Q 160.25 161.4 155.5 163 Q 147.25 164 144 161 L 142.5 152 Z " /><path fill="rgb(236,199,171)" stroke="rgb(236,199,171)" stroke-width="0" opacity="0.996078431372549" d="M 166.5 159 Q 176.25 157.25 179 162.5 L 179.5 164 L 181 163.5 L 179.5 166 L 178.5 164 L 178 166.5 L 178.5 168 L 177 167.5 L 178 170.5 L 177 170.5 L 176.5 169 L 176 171.5 L 176.5 173 L 175 172.5 L 173.5 177 L 167.5 178 L 163 176 L 163 164.5 L 162 163.5 L 164 163 L 166.5 159 Z " /><path fill="rgb(236,199,171)" stroke="rgb(236,199,171)" stroke-width="0" opacity="0.996078431372549" d="M 155.5 167 L 157 167.5 L 155 171.5 L 157 170.5 L 157.5 169 L 158 170.5 L 155.5 174 L 155 172 Q 148.5 173.25 146 169.5 L 146.5 168 L 154.5 168 L 155.5 167 Z " /><path fill="rgb(236,199,171)" stroke="rgb(236,199,171)" stroke-width="0" opacity="0.996078431372549" d="M 157.5 183 L 159 189.5 L 157.5 195 L 157 190.5 L 158 185.5 L 157.5 183 Z " /><path fill="rgb(236,199,171)" stroke="rgb(236,199,171)" stroke-width="0" opacity="0.996078431372549" d="M 123.5 192 Q 124.75 195 129 194 L 129.5 192 L 130 193.5 L 125.5 195 Q 123.75 191.92 122 193.5 L 123.5 192 Z " /><path fill="rgb(236,199,171)" stroke="rgb(236,199,171)" stroke-width="0" opacity="0.996078431372549" d="M 155.5 200 Q 155.31 204.69 158.5 206 L 160 206.5 L 158.5 207 Q 153.56 205.56 155.5 200 Z " /><path fill="rgb(186,100,62)" stroke="rgb(186,100,62)" stroke-width="0" opacity="0.996078431372549" d="M 173.5 4 L 182 4.5 L 179 5.5 L 183.5 6 L 185.5 5 L 184.5 7 Q 176.31 5.31 173 8.5 L 175 9.5 L 173.5 10 L 170.5 9 L 167.5 13 L 167 10.5 L 167.5 9 L 163 10.5 L 164.5 13 L 162 12 L 163.5 15 L 165.5 16 L 169 15 L 169.5 17 L 171 14.5 L 170 12 L 177.5 10 L 177.5 12 L 180.5 11 L 181.5 14 L 184.5 15 L 186 14.5 L 185 17.5 Q 184.17 20.13 187.5 19 L 188.5 16 L 190.5 19 Q 189.25 16.75 188 19.5 L 194 24.5 L 192.5 24 L 188.5 22 L 190 24.5 L 191.5 27 L 194 28.5 L 193 30.5 L 196 31.5 L 194 31.5 L 194 34.5 L 199 42.5 L 198 45 L 202 45.5 L 201.5 47 L 203 47.5 L 201.5 49 L 199 47.5 L 200 54.5 L 197 56 L 197 62.5 L 193 74 Q 190.33 72.88 191 75.5 L 188 79.5 L 189 81.5 Q 187.67 85.75 183 85 L 182 82.5 L 187 78.5 L 186.5 77 Q 187.75 79.25 189 76.5 L 193 64.5 L 193 50.5 L 190.5 46 L 190 48.5 Q 193 53.5 192 62.5 Q 189.17 65.47 190 71 Q 187 72.25 188 68.5 L 189 64.5 L 188 64.5 Q 188.83 67.13 185.5 66 L 186 64.5 Q 187.25 59.25 184.5 58 L 183 56.5 L 185 56.5 L 182 47 Q 178.33 45.65 180 51.5 L 179 55 Q 183.13 53.67 182 57 Q 177.2 55.13 178 58.5 L 176 64 L 173.5 65 L 172.5 63 L 169 68.5 L 169.5 70 L 166.5 68 L 162.5 69 L 164 66.5 L 161.5 60 L 160.5 64 L 156 53.5 L 156 51.5 L 154.5 44 L 151 51 L 148 51.5 Q 150.5 53 147 54.5 L 143.5 60 L 140.5 59 L 138.5 62 L 135.5 64 Q 132.75 65.25 135 66.5 Q 134.33 69.13 137 68 L 137 72.5 L 140 79 L 143 80.5 L 139.5 81 L 137.5 80 L 136 80.5 L 136.5 79 L 128 75.5 L 126.5 71 L 125 71.5 L 124 67.5 L 125 65.5 L 123.5 55 Q 119.07 60.07 119.5 70 L 118 68.5 L 117.5 62 Q 114.8 65.8 116 73.5 L 117.5 77 L 118.5 74 L 120 79.5 L 118 79.5 Q 119.33 84.31 116 83 Q 117.13 80.33 114.5 81 L 111.5 75 L 111 77.5 L 112 79.5 L 109.5 78 L 106.5 79 L 106.5 78 Q 109.13 78.83 108 75.5 L 106 75.5 L 107 63.5 L 103 66.5 L 102.5 68 Q 99.75 66.75 102 65.5 L 105 59 Q 102.33 60.13 103 57.5 L 101 57.5 Q 100.17 54.88 103.5 56 L 105.5 56 L 109.5 54 L 111 54.5 L 110 49.5 L 112 44 Q 114.67 45.13 114 42.5 L 112.5 41 L 108 45.5 L 104.5 54 L 104 50.5 L 121 25.5 L 131.5 15 L 145.5 8 L 158.5 7 L 160.5 8 L 162.5 7 L 162.5 9 L 167.5 8 L 173.5 4 Z M 138 13 L 124 24 L 125 25 L 133 18 L 134 19 L 132 22 L 134 24 L 138 20 L 137 19 L 138 17 L 139 14 L 138 13 Z M 160 16 L 148 26 L 149 27 Q 153 22 161 20 Q 167 21 166 19 Q 165 15 160 16 Z M 174 17 L 169 20 L 171 20 L 173 20 L 183 27 L 184 29 L 187 31 L 182 23 L 174 17 Z M 140 20 L 133 28 L 137 25 L 138 26 L 141 21 L 140 20 Z M 140 26 L 137 31 L 138 32 L 143 30 L 142 29 L 140 26 Z M 149 33 L 148 35 L 148 37 L 147 36 L 146 38 L 148 39 L 152 37 Q 153 34 149 35 L 149 33 Z M 137 49 Q 134 54 135 63 L 137 62 L 136 58 L 137 56 L 137 49 Z " /><path fill="rgb(186,100,62)" stroke="rgb(186,100,62)" stroke-width="0" opacity="0.996078431372549" d="M 197.5 25 L 198.5 28 L 200.5 29 L 201.5 28 L 209 35.5 Q 206.75 36.75 209.5 38 L 211 38.5 L 209.5 39 L 204 33.5 L 205 32.5 L 201.5 29 L 199.5 29 L 196 26.5 L 197.5 25 Z " /><path fill="rgb(186,100,62)" stroke="rgb(186,100,62)" stroke-width="0" opacity="0.996078431372549" d="M 202.5 41 L 205 41.5 L 204.5 43 L 215 51.5 L 214 55.5 Q 218 59.75 218 67 Q 215.33 68.13 216 65.5 L 216.5 64 L 213.5 61 L 212 57.5 L 210 54.5 L 204 46.5 L 204.5 45 Q 201.88 45.83 203 42.5 L 202.5 41 Z " /><path fill="rgb(186,100,62)" stroke="rgb(186,100,62)" stroke-width="0" opacity="0.996078431372549" d="M 208.5 58 L 209 59.5 L 208 62 Q 211.67 60.65 210 66.5 L 209 68.5 L 210 70.5 L 209 72.5 L 210 76.5 L 209 76.5 L 208.5 75 L 208 77.5 L 209 79.5 L 207 78.5 L 206.5 75 L 201.5 82 L 201 80 L 204 78.5 L 206.5 72 L 207.5 74 L 208 70.5 L 206 70.5 L 208 64 L 206 64.5 L 206.5 66 L 205 61.5 L 207 61.5 L 208.5 58 Z " /><path fill="rgb(186,100,62)" stroke="rgb(186,100,62)" stroke-width="0" opacity="0.996078431372549" d="M 197.5 72 L 198 74.5 L 194.5 80 L 195 78.5 L 197.5 72 Z " /><path fill="rgb(186,100,62)" stroke="rgb(186,100,62)" stroke-width="0" opacity="0.996078431372549" d="M 177.5 73 L 178.5 75 L 180 74.5 L 180 76.5 L 177.5 79 L 176 78.5 L 177 76.5 L 177 74.5 L 177.5 73 Z " /><path fill="rgb(186,100,62)" stroke="rgb(186,100,62)" stroke-width="0" opacity="0.996078431372549" d="M 198.5 79 L 200 82.5 L 199 84.5 L 201 85.5 L 201.5 84 L 202 87.5 L 201.5 90 L 198 89.5 L 200 89 Q 201.5 85.25 198.5 86 L 198.5 88 L 195.5 87 L 194 87.5 L 198 85.5 L 198 81.5 L 198.5 79 Z " /><path fill="rgb(186,100,62)" stroke="rgb(186,100,62)" stroke-width="0" opacity="0.996078431372549" d="M 154.5 82 L 156.5 82 Q 163.78 81.22 167 84.5 L 163.5 89 L 164 87.5 L 161.5 83 Q 156.25 81.75 155 84.5 L 156 87.5 L 155 87.5 L 154.5 82 Z " /><path fill="rgb(186,100,62)" stroke="rgb(186,100,62)" stroke-width="0" opacity="0.996078431372549" d="M 108.5 83 L 110 83.5 L 109.5 85 L 111.5 84 Q 116.5 85.5 115 93.5 L 111.5 98 L 110.5 96 L 110 98 Q 107.33 99.13 108 96.5 L 107 94 L 105 94.5 Q 108.2 96.8 107 103.5 L 105 107.5 L 107.5 106 L 111.5 105 Q 116.5 107.5 111.5 110 L 106.5 112 L 104 111 Q 105.13 107.67 101 109 L 101 106.5 L 99 103.5 L 101 97.5 L 97 99.5 L 102.5 95 L 104.5 96 L 104 94.5 Q 103.33 91.88 106 93 L 106 90.5 L 108 85.5 L 105 87.5 Q 106.67 93.35 103 92 Q 102.12 86.12 106.5 84 L 108.5 83 Z " /><path fill="rgb(186,100,62)" stroke="rgb(186,100,62)" stroke-width="0" opacity="0.996078431372549" d="M 125.5 87 L 131 89.5 L 128.5 93 L 130 93.5 L 126.5 94 L 125 93.5 Q 125.83 96.13 122.5 95 L 118 93 L 119.5 90 L 125.5 87 Z " /><path fill="rgb(186,100,62)" stroke="rgb(186,100,62)" stroke-width="0" opacity="0.996078431372549" d="M 147.5 89 L 150.5 94 L 151 92.5 L 150.5 91 Q 154.65 94.85 163 94.5 L 161 95.5 L 163 96.5 L 162.5 98 L 164.5 97 L 168 99.5 L 165 95.5 L 168 94.5 L 167.5 93 L 175 97.5 L 173.5 98 L 171 97 L 171.5 102 Q 172.75 99.75 174 102.5 L 177 108.5 L 176 110.5 L 177 112.5 L 174.5 116 L 172.5 117 L 169 114.5 L 170 111.5 L 168.5 112 L 165 113.5 L 166.5 117 L 167.5 115 L 168 116.5 Q 164.21 120.43 156 119 L 156 110.5 Q 153 111.5 154 106.5 L 155 103.5 L 152 102 L 153 98.5 L 151.5 98 L 149 99.5 Q 154.25 97.25 150.5 95 Q 146 96 145 93.5 L 144 91.5 L 146 91.5 L 147.5 89 Z M 158 102 Q 154 103 156 110 L 159 108 L 160 111 L 163 111 L 164 113 L 166 112 L 163 107 L 158 104 L 158 102 Z M 167 102 L 165 104 L 167 108 L 166 111 L 169 111 L 171 106 L 172 108 L 174 107 L 175 108 L 172 104 L 170 104 L 167 102 Z " /><path fill="rgb(186,100,62)" stroke="rgb(186,100,62)" stroke-width="0" opacity="0.996078431372549" d="M 191.5 94 L 188.5 98 L 187 97.5 L 189 96.5 L 187 95.5 L 188.5 95 Q 190 97.5 191.5 94 Z " /><path fill="rgb(186,100,62)" stroke="rgb(186,100,62)" stroke-width="0" opacity="0.996078431372549" d="M 140.5 95 L 145.5 98 L 147 97.5 Q 144.75 101.25 142.5 96 Q 139.5 96.5 140.5 95 Z " /><path fill="rgb(186,100,62)" stroke="rgb(186,100,62)" stroke-width="0" opacity="0.996078431372549" d="M 136.5 96 L 139 96.5 L 136 100.5 L 137.5 101 L 139 100.5 L 133 104.5 L 133.5 107 L 136 105.5 L 133 109.5 L 138 110.5 L 133.5 111 L 130 109.5 L 137 97.5 L 136.5 96 Z " /><path fill="rgb(186,100,62)" stroke="rgb(186,100,62)" stroke-width="0" opacity="0.996078431372549" d="M 176.5 96 Q 178 99.5 179.5 97 L 183.5 101 L 188 104.5 L 186.5 106 L 180 103.5 L 176.5 96 Z " /><path fill="rgb(186,100,62)" stroke="rgb(186,100,62)" stroke-width="0" opacity="0.996078431372549" d="M 114.5 97 Q 119.94 96.06 122 98.5 L 121 101 Q 118 100 119 103 L 116.5 103 L 111 104 L 110.5 102 L 109 102.5 L 111.5 99 L 114.5 97 Z " /><path fill="rgb(186,100,62)" stroke="rgb(186,100,62)" stroke-width="0" opacity="0.996078431372549" d="M 147.5 103 L 148 114.5 L 145.5 115 L 144 115.5 L 147 116.5 L 145 119.5 L 146 121.5 L 145 121.5 L 144 119.5 L 145 117.5 L 143 117.5 L 142 114.5 L 144 114.5 L 146 111.5 Q 144.31 105.69 137 105.5 L 141.5 105 L 146 108.5 L 145 106.5 L 147 106.5 L 147.5 103 Z " /><path fill="rgb(186,100,62)" stroke="rgb(186,100,62)" stroke-width="0" opacity="0.996078431372549" d="M 189.5 105 L 193 106.5 L 192 108.5 L 193.5 108 L 198 112.5 L 197 118.5 Q 199.25 119.75 196.5 121 L 194.5 121 L 192 120.5 L 193.5 115 Q 194.75 117.25 196 114.5 L 194.5 112 L 190 110.5 L 190.5 109 L 188 107.5 L 191 106.5 L 189.5 105 Z " /><path fill="rgb(186,100,62)" stroke="rgb(186,100,62)" stroke-width="0" opacity="0.996078431372549" d="M 183.5 107 L 183.5 110 L 181.5 110 Q 178.87 109.33 180 112 L 182 112.5 Q 180.5 115.5 179 112.5 L 178 109 L 183.5 107 Z " /><path fill="rgb(186,100,62)" stroke="rgb(186,100,62)" stroke-width="0" opacity="0.996078431372549" d="M 98.5 109 L 100 110.5 L 101 117 L 106.5 114 L 110 116.5 L 111 118.5 L 109 119.5 L 109 117.5 L 108.5 116 L 105.5 120 L 103.5 121 L 103 119 Q 99.25 117.5 100 120.5 L 97 118.5 L 96.5 117 L 94 118 L 93 115.5 L 94 113 L 96 112.5 Q 93.75 111.25 96.5 110 L 98.5 109 Z " /><path fill="rgb(186,100,62)" stroke="rgb(186,100,62)" stroke-width="0" opacity="0.996078431372549" d="M 179.5 116 L 182 122.5 L 190 132.5 L 191 137.5 L 189.5 140 L 186 135.5 L 188 135.5 Q 189 131 186.5 130 L 185.5 134 L 184.5 131 Q 181.88 131.67 183 129 L 180.5 129 L 178 125 Q 175 126 176 123 Q 182.4 125.29 180 117.5 L 179.5 116 Z " /><path fill="rgb(186,100,62)" stroke="rgb(186,100,62)" stroke-width="0" opacity="0.996078431372549" d="M 149.5 120 L 150 122.5 L 148 132.5 L 149 133.5 L 143.5 139 L 142.5 137 Q 144.25 139.75 146 135.5 L 144 134.5 L 143.5 136 Q 141.75 132.25 140 135.5 L 138.5 139 L 138 137 L 134.5 139 L 132 137.5 L 133 139.5 L 130 141.5 L 130.5 143 L 129 142.5 L 130 145.5 L 127 146.5 L 129 147 Q 130.13 149.67 127.5 149 L 128 150.5 L 129 154.5 L 126 158.5 L 125 173.5 L 129 171.5 Q 126.5 176.33 124 174.5 L 126 179.5 L 125 181.5 L 127 185.5 L 126 188.5 L 129 192.5 L 125.5 194 Q 124 190.5 122.5 193 L 119 189.5 L 117 189.5 L 116.5 188 L 115 188.5 L 116 184.5 L 115.5 182 L 114 181.5 L 115 179 Q 111.33 180.2 113 175 Q 116 176.25 115 172.5 L 114.5 171 L 116 171.5 L 115 169.5 L 117 169 L 116 166.5 L 118 166.5 L 117 164.5 L 119 164.5 L 117 157.5 L 120.5 153 L 122 151.5 L 122.5 150 Q 119.87 150.83 121 147.5 L 120 143.5 L 123.5 139 L 126 139 Q 124.88 136.33 127.5 137 L 130 136.5 L 128 133.5 L 129.5 134 L 134 132.5 L 133.5 129 L 132.5 131 L 132 126 L 128.5 127 L 128.5 126 L 131.5 125 L 133.5 128 L 136.5 126 L 137.5 128 L 135 127 Q 133.5 132.38 136.5 134 L 139 130.5 L 139 128.5 L 140.5 125 L 143.5 127 L 148 123.5 L 149.5 120 Z " /><path fill="rgb(186,100,62)" stroke="rgb(186,100,62)" stroke-width="0" opacity="0.996078431372549" d="M 94.5 123 L 98 124.5 L 95 126.5 L 98 127.5 L 94.5 131 L 92 130.5 L 93 128.5 L 92 124 L 94.5 123 Z " /><path fill="rgb(186,100,62)" stroke="rgb(186,100,62)" stroke-width="0" opacity="0.996078431372549" d="M 105.5 123 Q 110.9 121.13 110 124.5 L 108.5 128 L 104 126.5 L 107 126 Q 108.13 123.33 105.5 124 L 105.5 123 Z " /><path fill="rgb(186,100,62)" stroke="rgb(186,100,62)" stroke-width="0" opacity="0.996078431372549" d="M 152.5 128 L 166 129.5 L 155.5 130 L 153 131 L 154 134.5 L 152 133.5 L 150.5 132 L 151 130.5 L 152.5 128 Z " /><path fill="rgb(186,100,62)" stroke="rgb(186,100,62)" stroke-width="0" opacity="0.996078431372549" d="M 101.5 129 Q 103.25 132.08 105 130.5 L 106.5 133 L 108 132.5 L 107.5 131 L 111.5 133 L 115 130.5 L 113.5 132 Q 115.08 133.75 112 135.5 L 113.5 137 L 114.5 135 L 115 136.5 L 110.5 140 L 105.5 139 L 105.5 140 L 109 142.5 L 108.5 144 L 106 143.5 L 106.5 142 L 100.5 140 L 99 140.5 L 99.5 139 L 97.5 138 L 97 140.5 Q 99.25 141.75 96.5 143 Q 92.25 141.25 95 139.5 L 94 134 L 96 133.5 L 95.5 132 L 98 133 L 98 131 Q 101.79 132.33 101.5 129 Z " /><path fill="rgb(186,100,62)" stroke="rgb(186,100,62)" stroke-width="0" opacity="0.996078431372549" d="M 165.5 135 L 168 135.5 L 162 138.5 L 162.5 140 L 161 137.5 L 165.5 135 Z " /><path fill="rgb(186,100,62)" stroke="rgb(186,100,62)" stroke-width="0" opacity="0.996078431372549" d="M 152 143 L 156.5 144 L 160.5 143 L 161.5 145 L 158.5 147 L 152 145 L 152 143 Z " /><path fill="rgb(186,100,62)" stroke="rgb(186,100,62)" stroke-width="0" opacity="0.996078431372549" d="M 175.5 144 L 177 146.5 L 171.5 148 L 169.5 147 L 169.5 149 Q 166.5 147.5 169.5 146 L 175.5 144 Z " /><path fill="rgb(186,100,62)" stroke="rgb(186,100,62)" stroke-width="0" opacity="0.996078431372549" d="M 150.5 146 L 152.5 146 L 156 147.5 L 154 148 Q 155.31 151.33 150.5 150 L 149 147.5 L 150.5 146 Z " /><path fill="rgb(186,100,62)" stroke="rgb(186,100,62)" stroke-width="0" opacity="0.996078431372549" d="M 177.5 148 L 178.5 152 L 180.5 149 L 183 154.5 L 181.5 157 L 180.5 150 L 180 154 L 177 153.5 L 177 151.5 L 177.5 148 Z " /><path fill="rgb(186,100,62)" stroke="rgb(186,100,62)" stroke-width="0" opacity="0.996078431372549" d="M 148.5 151 L 157 152.5 L 155.5 154 L 147.5 155 L 147 152.5 L 148.5 151 Z " /><path fill="rgb(186,100,62)" stroke="rgb(186,100,62)" stroke-width="0" opacity="0.996078431372549" d="M 178.5 164 L 179 166.5 L 176 172.5 Q 178.25 173.75 175.5 175 L 175 172.5 L 178.5 164 Z " /><path fill="rgb(186,100,62)" stroke="rgb(186,100,62)" stroke-width="0" opacity="0.996078431372549" d="M 158.5 165 L 158 166.5 L 155.5 172 L 155 170.5 L 157 167.5 L 156.5 166 L 158.5 165 Z " /><path fill="rgb(186,100,62)" stroke="rgb(186,100,62)" stroke-width="0" opacity="0.996078431372549" d="M 143.5 166 L 150 167.5 L 146 168 L 147.5 171 L 154 172.5 L 151.5 176 L 146.5 177 L 144 175.5 L 146 174.5 L 142 172.5 L 143 170.5 L 142 167.5 L 143.5 166 Z " /><path fill="rgb(186,100,62)" stroke="rgb(186,100,62)" stroke-width="0" opacity="0.996078431372549" d="M 164.5 176 L 173 179.5 L 171 180 Q 172.31 183.33 167.5 182 Q 165.75 178.92 164 180.5 L 165 177.5 L 164.5 176 Z " /><path fill="rgb(186,100,62)" stroke="rgb(186,100,62)" stroke-width="0" opacity="0.996078431372549" d="M 160.5 180 Q 165 182 161.5 184 L 160 183.5 L 161 185.5 L 159 184.5 L 160.5 180 Z " /><path fill="rgb(253,253,253)" stroke="rgb(253,253,253)" stroke-width="0" opacity="0" d="M 0 0 L 320 0 L 320 213 L 0 213 L 0 0 Z M 176 3 Q 169 4 167 8 L 161 6 L 152 6 L 144 8 L 130 16 L 108 42 Q 103 47 103 56 L 100 55 L 96 48 L 95 54 Q 98 59 104 59 L 99 72 L 100 75 L 109 82 Q 110 84 107 83 L 102 89 L 104 94 L 101 95 L 95 103 Q 94 107 97 108 L 93 114 L 95 123 Q 91 122 90 126 L 94 134 L 93 136 L 94 142 L 100 145 Q 103 146 102 144 L 104 144 Q 108 142 107 146 L 107 148 L 109 149 L 111 146 Q 110 139 113 140 L 116 136 L 115 129 Q 112 128 113 132 L 111 132 Q 109 134 108 132 L 111 131 L 113 122 L 109 121 Q 113 119 112 113 L 116 111 L 117 110 L 120 107 L 126 106 Q 130 104 131 97 L 135 98 L 131 105 L 131 108 L 127 110 L 125 109 L 121 110 Q 118 109 119 114 L 125 116 Q 124 123 120 128 L 120 131 L 124 132 L 126 129 L 128 128 L 127 130 Q 126 135 129 136 L 120 142 Q 118 148 121 150 L 117 157 L 117 165 L 113 173 Q 111 181 115 184 L 114 188 L 118 191 L 119 190 L 119 192 L 122 193 L 126 195 L 130 194 L 128 190 L 126 175 L 130 172 Q 138 167 137 153 L 140 152 L 142 162 L 136 172 L 137 191 L 142 196 Q 149 197 150 193 Q 149 185 152 186 L 152 182 L 156 177 L 156 173 L 160 165 L 162 155 L 162 170 L 162 172 Q 158 174 157 181 L 158 186 L 155 204 L 162 208 L 168 207 L 171 204 L 174 191 Q 173 187 176 188 L 178 185 Q 176 178 179 177 L 177 174 L 182 162 L 184 153 L 184 156 L 189 158 L 192 157 L 193 154 L 195 154 L 199 153 L 208 142 Q 204 136 203 128 L 196 122 L 198 121 L 199 119 L 198 112 L 194 109 L 193 106 L 183 100 L 180 96 L 182 97 Q 185 96 184 99 L 190 98 Q 194 95 194 89 L 199 90 L 197 95 L 199 95 L 202 90 L 206 88 L 206 86 L 202 87 L 202 82 L 204 81 L 205 79 L 207 78 L 206 82 L 203 83 Q 202 86 205 85 Q 210 82 211 75 Q 212 64 209 59 L 210 57 L 216 67 Q 217 73 213 75 L 216 75 L 219 70 Q 219 60 215 55 L 217 55 L 222 54 L 223 50 Q 220 49 221 52 L 217 52 L 215 51 L 214 43 L 209 35 L 198 25 L 194 21 Q 187 12 174 9 L 178 7 L 185 7 L 196 11 L 202 20 Q 203 24 200 25 L 202 26 Q 206 25 205 18 Q 196 4 176 3 Z " /><path fill="rgb(253,253,253)" stroke="rgb(253,253,253)" stroke-width="0" opacity="0" d="M 202.5 33 L 207 36 L 212 43.5 L 212 48.5 L 208 45.5 Q 203.16 40.55 202.5 33 Z " /><path fill="rgb(253,253,253)" stroke="rgb(253,253,253)" stroke-width="0" opacity="0" d="M 111.5 43 L 111 44.5 L 109.5 48 L 108 48.5 Q 111.5 50 109 51.5 Q 110.67 56.31 106.5 55 L 105 55.5 Q 105.25 46.25 111.5 43 Z " /><path fill="rgb(253,253,253)" stroke="rgb(253,253,253)" stroke-width="0" opacity="0" d="M 105.5 65 L 106 67.5 L 105 74.5 L 105.5 76 Q 101.96 74.04 103 67.5 L 105.5 65 Z " /><path fill="rgb(253,253,253)" stroke="rgb(253,253,253)" stroke-width="0" opacity="0" d="M 204 70 Q 207 68.75 206 72.5 L 202.5 79 L 202 76.5 L 204 70 Z " /></svg>