<svg role="img" aria-label="after-moon-sprout" viewBox="0 0 320 213" version="1.1" xmlns="http://www.w3.org/2000/svg" desc="Created with imagetracer.js version 1.2.6" ><path fill="rgb(248,241,200)" stroke="rgb(248,241,200)" stroke-width="0" opacity="0.996078431372549" d="M 148.5 7 L 154.5 8 L 155.5 7 L 164.5 7 L 164.5 8 L 157.5 8 L 149 13.5 L 151 14 L 149.5 18 L 147.5 15 L 143 22.5 Q 147.29 25.01 146 32 Q 149.33 30.69 148 35.5 L 149 40.5 L 148 45.5 L 148.5 47 L 141.5 37 L 135.5 38 L 131 34.5 L 132 26.5 L 131 24.5 L 132 24.5 L 132.5 26 L 133 23.5 L 132.5 22 L 134 22.5 L 133 20.5 L 135 20.5 L 134 18.5 L 137.5 15 Q 138.75 17.25 140 14.5 Q 137.25 12.75 141.5 11 L 143.5 12 L 144.5 9 L 147.5 10 L 150 8.5 L 148.5 7 Z " /><path fill="rgb(248,241,200)" stroke="rgb(248,241,200)" stroke-width="0" opacity="0.996078431372549" d="M 150.5 75 L 149.5 77 L 146 78.5 L 149.5 79 L 151.5 78 Q 154.25 79.25 152 80.5 L 151 82.5 L 152.5 83 L 159 75 Q 161.67 73.88 161 76.5 L 168.5 83 L 169 81.5 L 168 79 L 177.5 81 L 177.5 79 L 178.5 82 Q 181.13 81.17 180 84.5 L 181.5 88 Q 187.14 87.36 188.5 91 Q 190.25 88.25 192 92.5 L 191 94.5 L 193 94.5 L 192 96.5 L 194 96.5 L 193 98.5 L 195 98.5 L 194 100.5 L 196 100.5 L 197 104.5 L 196 107.5 L 197 107.5 L 197.5 106 L 198 108.5 L 197 109.5 L 197 119.5 L 198 122.5 L 197 122.5 L 196.5 121 L 196 124.5 L 197 130.5 L 196 130.5 L 195.5 125 L 195 131.5 L 195.5 133 L 194 132.5 L 195.5 135 L 197 134.5 Q 195.75 137.25 194.5 135 L 190.5 139 L 188.5 140 L 186.5 139 L 186.5 141 L 184.5 140 L 185 141.5 Q 185.67 144.13 183 143 Q 184.13 140.33 181.5 141 L 172.5 144 L 154.5 145 L 135.5 140 L 135.5 142 L 134.5 139 L 132.5 140 L 132.5 138 L 130.5 139 L 129.5 136 L 126.5 138 L 125 136.5 L 126.5 134 L 124.5 135 L 124.5 133 L 123 132.5 L 125 132 L 124.5 130 L 122.5 131 L 123 129.5 L 124 121.5 L 123 121.5 L 122.5 123 L 122 119.5 L 123 112.5 L 122 107.5 L 123.5 104 L 125 104.5 L 124 101.5 L 126 101.5 L 125 99.5 L 127 99.5 L 126 97.5 L 128 97.5 L 127 95.5 L 130.5 91 L 132 91.5 L 131 89.5 Q 132.75 85.25 134.5 88 L 141 87 L 142 81.5 Q 139.75 80.25 142.5 79 L 150.5 75 Z M 167 97 L 160 98 L 159 105 Q 158 107 161 106 L 162 102 L 168 98 L 167 97 Z M 138 113 L 136 114 L 131 121 L 133 127 L 135 126 L 139 131 L 145 130 L 147 127 L 146 117 Q 145 112 138 113 Z M 178 113 L 176 114 L 172 120 Q 170 129 176 131 Q 182 132 184 129 L 186 127 L 185 126 L 186 119 L 187 126 L 188 126 L 187 118 Q 186 112 178 113 Z M 154 129 L 156 135 L 157 133 L 158 135 L 162 134 L 160 137 L 159 136 L 157 135 L 156 137 L 161 138 Q 165 136 164 130 L 154 129 Z " /><path fill="rgb(248,241,200)" stroke="rgb(248,241,200)" stroke-width="0" opacity="0.996078431372549" d="M 93.5 111 L 100 116.5 Q 104.14 127.86 112.5 135 L 119.5 136 L 121 137.5 Q 122.13 140.83 119.5 140 Q 118.25 137.75 117 140.5 L 119.5 145 L 121 145.5 L 119.5 146 L 116 143.5 L 113.5 136 L 106 129.5 L 96.5 114 L 93.5 111 Z " /><path fill="rgb(248,241,200)" stroke="rgb(248,241,200)" stroke-width="0" opacity="0.996078431372549" d="M 227.5 111 L 221 118.5 Q 216.92 130.42 207.5 137 L 205 138.5 L 206 140.5 L 201.5 147 L 200 146.5 L 203 141.5 Q 201.75 138.75 200.5 141 Q 197.88 141.83 199 138.5 L 203.5 137 Q 205 139.5 206.5 136 L 214 129.5 Q 218.4 117.9 227.5 111 Z " /><path fill="rgb(248,241,200)" stroke="rgb(248,241,200)" stroke-width="0" opacity="0.996078431372549" d="M 129.5 149 Q 132.01 152.2 138 151 L 137 158.5 L 140.5 160 L 151 155 Q 151.48 161.6 156.5 165 L 160.5 166 L 167.5 155 Q 171.25 160.5 180 160 L 180 152 L 187.5 152 L 191.5 151 L 201 163.5 L 198.5 164 L 195 163 Q 193.88 170.58 196 174 L 192 173.5 L 195 172.5 L 191.5 172 L 190 172.5 L 190.5 171 L 188.5 172 L 188.5 170 L 185.5 168 L 185 169.5 L 187 172.5 L 188 184.5 L 187 184.5 L 186.5 183 L 186 185.5 L 187 187.5 L 183.5 194 L 182 193.5 L 183 195.5 L 181 195.5 L 182 197.5 L 179.5 198 L 178 196.5 L 175.5 192 L 169.5 199 L 166 196.5 L 165.5 195 L 164.5 197 L 163 193.5 L 164 191 L 166 190.5 L 153.5 190 L 153.5 191 L 155 191.5 L 154 194.5 L 155 196.5 L 153.5 199 L 153 197 L 149.5 199 L 144.5 193 L 141 194.5 L 139.5 198 Q 137.75 194.92 136 196.5 L 134 191.5 L 135 189.5 L 133 189.5 L 134 187.5 L 132 187.5 L 133 184.5 L 131 184.5 L 132 171 L 128.5 172 L 126.5 171 L 126.5 173 L 123 171.5 L 124 163 L 118 164 Q 121.5 154.81 129.5 149 Z " /><path fill="rgb(175,192,103)" stroke="rgb(175,192,103)" stroke-width="0" opacity="0.996078431372549" d="M 153.5 6 L 166.5 6 L 169 7 Q 170.25 10 166.5 9 Q 158.61 11.11 155 17.5 Q 150.33 22.33 152 33.5 L 157 43 L 167.5 48 L 173.5 48 L 183.5 43 L 184 46.5 Q 180.75 55.25 173.5 60 L 165 64.5 L 164 70.5 L 168.5 76 L 181 81 Q 181.4 72.63 187.5 69 Q 192.92 64.42 202.5 64 Q 205.5 65.5 204 71.5 Q 202.53 81.53 195.5 86 L 188 88.5 L 195 100.5 L 194 100.5 Q 192.15 92.85 186.5 89 L 180 86.5 L 180 84.5 Q 181.13 81.17 178.5 82 Q 174.88 78.17 168 79 L 170 83.5 L 167.5 82 L 161 76.5 Q 161.67 73.88 159 75 L 152.5 83 L 151 82.5 L 153 79.5 L 150.5 78 L 146.5 79 L 146.5 78 L 153 75 L 155 68.5 L 149.5 61 Q 139.62 58.87 135 51.5 Q 128.53 44.47 130 29.5 Q 132.63 19.78 138 14 Q 143.95 8.66 153.5 6 Z M 156 7 L 143 12 Q 132 18 131 35 L 136 38 L 142 37 L 148 46 L 149 41 L 148 36 Q 149 31 146 32 Q 147 25 143 23 L 146 17 L 158 8 L 165 8 L 156 7 Z " /><path fill="rgb(175,192,103)" stroke="rgb(175,192,103)" stroke-width="0" opacity="0.996078431372549" d="M 121.5 63 Q 133.4 64.6 139 72.5 L 141.5 81 L 143 80.5 Q 139.75 81.95 141 87 L 134.5 88 L 132 90.5 L 129.5 94 L 131 91.5 L 134 87.5 Q 125.78 85.72 122 79.5 L 119 65.5 L 121.5 63 Z " /><path fill="rgb(175,192,103)" stroke="rgb(175,192,103)" stroke-width="0" opacity="0.996078431372549" d="M 159.5 89 L 164 95.5 L 162.5 96 L 160 95.5 L 161 92.5 L 159.5 89 Z " /><path fill="rgb(175,192,103)" stroke="rgb(175,192,103)" stroke-width="0" opacity="0.996078431372549" d="M 151.5 97 L 158 98 L 157.5 102 L 157 100 L 151.5 98 L 151.5 97 Z " /><path fill="rgb(175,192,103)" stroke="rgb(175,192,103)" stroke-width="0" opacity="0.996078431372549" d="M 166.5 97 L 168 97.5 L 162 101.5 L 161 106 Q 158.33 107.13 159 104.5 L 158.5 103 L 160 103.5 Q 157.25 95.25 165.5 98 L 166.5 97 Z " /><path fill="rgb(175,192,103)" stroke="rgb(175,192,103)" stroke-width="0" opacity="0.996078431372549" d="M 84.5 107 L 99.5 110 Q 110.86 114.64 118 123.5 L 125 136.5 L 130.5 143 L 136 141.5 L 126 134.5 L 128.5 136 Q 141.4 146.1 165.5 145 L 183 141 Q 181.75 144 185.5 143 L 188.5 144 L 193 140.5 Q 199.56 125.56 211.5 116 Q 220.95 107.45 238.5 107 L 240 108.5 L 240 122.5 Q 237.1 139.1 226.5 148 L 217 153.5 Q 225.5 159 224 174.5 L 223 178 Q 210.03 178.34 203.5 171 Q 201.32 174.46 196 174 L 195.5 172 L 191.5 173 L 188.5 171 Q 189.68 183.68 184.5 190 L 184 188.5 Q 188.67 183.67 187 172.5 L 183 165.5 L 185 166.5 L 187.5 170 L 195 172 L 195 163.5 L 197.5 163 L 200.5 164 L 200 162.5 L 191.5 151 L 180 152 L 180 160 L 175.5 160 L 167.5 155 L 160.5 166 L 155 163.5 L 151 155 L 138.5 160 L 137 155.5 L 138 151 Q 132.01 152.2 129.5 149 Q 121.5 154.81 118 164 L 124 163 L 123 171.5 L 125 172.5 L 119.5 173 L 116.5 172 Q 111.51 178.01 100.5 178 L 99 176.5 L 98 169.5 L 99 163.5 L 106 153.5 Q 95.85 149.65 90 141.5 Q 81.04 129.13 82 108 L 84.5 107 Z M 115 136 L 115 142 L 118 145 L 119 145 L 117 141 Q 118 138 120 140 Q 122 141 121 138 Q 120 135 115 136 Z M 201 137 L 199 139 Q 198 142 201 141 Q 202 139 203 142 L 200 147 L 202 147 L 206 141 L 205 139 L 201 137 Z " /><path fill="rgb(175,192,103)" stroke="rgb(175,192,103)" stroke-width="0" opacity="0.996078431372549" d="M 197.5 109 L 198 119.5 L 197 119.5 L 197.5 109 Z " /><path fill="rgb(175,192,103)" stroke="rgb(175,192,103)" stroke-width="0" opacity="0.996078431372549" d="M 137.5 113 Q 144.75 111.75 146 116.5 L 147 126.5 L 145 130 L 138.5 131 Q 133.07 128.43 133.5 120 L 132.5 127 L 131 120.5 L 135.5 114 L 137.5 113 Z " /><path fill="rgb(175,192,103)" stroke="rgb(175,192,103)" stroke-width="0" opacity="0.996078431372549" d="M 177.5 113 Q 185.75 111.75 187 117.5 L 188 125.5 L 187 125.5 L 185.5 119 Q 186.48 126.98 182.5 130 L 175.5 131 Q 170.47 128.53 172 119.5 L 175.5 114 L 177.5 113 Z " /><path fill="rgb(175,192,103)" stroke="rgb(175,192,103)" stroke-width="0" opacity="0.996078431372549" d="M 196.5 121 L 197 124.5 L 196 131.5 L 190.5 138 L 194 133.5 L 196.5 121 Z " /><path fill="rgb(175,192,103)" stroke="rgb(175,192,103)" stroke-width="0" opacity="0.996078431372549" d="M 154 129 L 164 130 Q 164.87 135.87 160.5 138 L 156 137 L 154 129 Z " /><path fill="rgb(175,192,103)" stroke="rgb(175,192,103)" stroke-width="0" opacity="0.996078431372549" d="M 134.5 165 L 135 166.5 L 132 171.5 L 131.5 183 L 131 171.5 L 133 167.5 L 134.5 165 Z " /><path fill="rgb(175,192,103)" stroke="rgb(175,192,103)" stroke-width="0" opacity="0.996078431372549" d="M 152.5 189 L 153.5 190 L 166 190.5 L 164 191 L 167.5 198 L 169.5 199 L 175.5 192 L 179.5 198 L 182.5 193 L 183 194.5 L 176.5 204 L 172.5 205 L 167 201.5 L 164 193.5 L 161.5 191 Q 156 190 155 193.5 L 151 203 L 145.5 205 L 139 200.5 L 137 196.5 L 140 197.5 L 142.5 193 Q 147.5 192.5 148 196.5 L 149.5 199 L 153 197 L 155 191.5 L 152.5 189 Z " /><path fill="rgb(253,253,253)" stroke="rgb(253,253,253)" stroke-width="0" opacity="0" d="M 0 0 L 320 0 L 320 213 L 0 213 L 0 0 Z M 156 5 L 142 11 Q 131 18 129 33 Q 129 47 136 54 Q 141 60 151 62 L 154 67 L 153 74 L 142 80 Q 142 73 138 71 L 126 63 Q 120 62 119 65 Q 118 76 123 82 Q 126 86 133 88 Q 125 95 122 108 L 122 123 L 123 124 L 123 130 L 116 121 L 99 109 Q 93 106 84 107 L 81 111 Q 81 132 91 144 Q 96 150 105 154 Q 100 158 98 166 Q 96 176 101 179 Q 112 179 117 172 L 119 173 L 130 172 L 131 172 L 130 174 L 130 182 L 139 202 Q 141 206 149 205 Q 154 201 156 194 L 157 192 L 163 192 L 167 203 L 171 205 L 178 204 L 187 188 Q 190 182 189 174 L 189 172 L 193 174 Q 202 176 204 171 Q 210 179 223 179 L 225 173 Q 226 159 218 154 L 225 150 L 235 139 L 241 119 Q 243 109 239 106 Q 220 107 211 116 L 202 125 L 194 139 L 189 144 L 187 143 Q 184 144 185 141 L 191 139 L 197 131 Q 196 122 199 118 L 197 103 L 189 88 Q 195 89 198 85 Q 206 79 204 64 L 198 64 L 187 69 Q 181 73 180 81 L 168 75 Q 164 72 165 65 L 175 60 Q 183 54 185 43 L 176 47 Q 164 49 160 44 Q 154 40 152 32 Q 152 21 157 16 Q 161 10 169 9 Q 171 10 170 7 Q 165 4 156 5 Z " /><path fill="rgb(253,253,253)" stroke="rgb(253,253,253)" stroke-width="0" opacity="0" d="M 124.5 133 L 127.5 137 L 135 141.5 L 131.5 143 Q 126 139 124.5 133 Z " /></svg>