<?xml version="1.0" encoding="UTF-8"?>
<svg xmlns="http://www.w3.org/2000/svg" viewBox="0 0 200 240" role="img" aria-label="ember-phoenix">
  <circle cx="100" cy="118" r="92" fill="none" stroke="#ffb347" stroke-width="3" opacity="0.55"/><circle cx="100" cy="118" r="86" fill="none" stroke="#ffd700" stroke-width="1" opacity="0.4"/>
  <ellipse cx="100" cy="200" rx="52" ry="10" fill="#000" opacity="0.12"/>
  <ellipse cx="100" cy="138" rx="58" ry="62" fill="#fff0d8"/>
  <ellipse cx="100" cy="138" rx="52" ry="56" fill="#fff0d8" stroke="#ffb848" stroke-width="2" opacity="0.35"/>
  <circle cx="100" cy="82" r="44" fill="#fff0d8"/>
  <path d="M 52 110 Q 40 70 60 50 Q 80 70 52 110" fill="#ffb848" opacity="0.7"/><path d="M 148 110 Q 160 70 140 50 Q 120 70 148 110" fill="#ffb848" opacity="0.7"/>
  
    <ellipse cx="82" cy="88" rx="10" ry="12" fill="#fff"/>
    <ellipse cx="118" cy="88" rx="10" ry="12" fill="#fff"/>
    <circle cx="84" cy="90" r="6" fill="#985818"/>
    <circle cx="120" cy="90" r="6" fill="#985818"/>
    <circle cx="86" cy="88" r="2" fill="#fff"/>
    <circle cx="122" cy="88" r="2" fill="#fff"/>
  
  <path d="M 88 108 Q 100 118 112 108" fill="none" stroke="#985818" stroke-width="2.5" stroke-linecap="round"/>
  <ellipse cx="72" cy="148" rx="14" ry="20" fill="#fff0d8" stroke="#ffb848" stroke-width="1.5"/>
  <ellipse cx="128" cy="148" rx="14" ry="20" fill="#fff0d8" stroke="#ffb848" stroke-width="1.5"/>
  <ellipse cx="82" cy="188" rx="16" ry="10" fill="#ffb848" opacity="0.55"/>
  <ellipse cx="118" cy="188" rx="16" ry="10" fill="#ffb848" opacity="0.55"/>
</svg>