<?xml version="1.0" encoding="UTF-8"?>
<svg xmlns="http://www.w3.org/2000/svg" viewBox="0 0 200 240" role="img" aria-label="mist-spirit">
  <circle cx="100" cy="118" r="94" fill="none" stroke="#ff6eb4" stroke-width="4" opacity="0.5"/>
  <ellipse cx="100" cy="200" rx="52" ry="10" fill="#000" opacity="0.12"/>
  <ellipse cx="100" cy="138" rx="58" ry="62" fill="#e8f0ff"/>
  <ellipse cx="100" cy="138" rx="52" ry="56" fill="#e8f0ff" stroke="#a8c8ff" stroke-width="2" opacity="0.35"/>
  <circle cx="100" cy="82" r="44" fill="#e8f0ff"/>
  <path d="M 72 48 Q 100 28 128 48 L 128 72 Q 100 88 72 72 Z" fill="#a8c8ff" opacity="0.5"/>
  
    <ellipse cx="82" cy="88" rx="10" ry="12" fill="#fff"/>
    <ellipse cx="118" cy="88" rx="10" ry="12" fill="#fff"/>
    <circle cx="84" cy="90" r="6" fill="#506888"/>
    <circle cx="120" cy="90" r="6" fill="#506888"/>
    <circle cx="86" cy="88" r="2" fill="#fff"/>
    <circle cx="122" cy="88" r="2" fill="#fff"/>
  
  <path d="M 88 108 Q 100 118 112 108" fill="none" stroke="#506888" stroke-width="2.5" stroke-linecap="round"/>
  <ellipse cx="72" cy="148" rx="14" ry="20" fill="#e8f0ff" stroke="#a8c8ff" stroke-width="1.5"/>
  <ellipse cx="128" cy="148" rx="14" ry="20" fill="#e8f0ff" stroke="#a8c8ff" stroke-width="1.5"/>
  <ellipse cx="82" cy="188" rx="16" ry="10" fill="#a8c8ff" opacity="0.55"/>
  <ellipse cx="118" cy="188" rx="16" ry="10" fill="#a8c8ff" opacity="0.55"/>
</svg>