<svg role="img" aria-label="moon-sprout" viewBox="0 0 320 213" version="1.1" xmlns="http://www.w3.org/2000/svg" desc="Created with imagetracer.js version 1.2.6" ><path fill="rgb(48,66,40)" stroke="rgb(48,66,40)" stroke-width="0" opacity="0.996078431372549" d="M 138.5 113 Q 143.62 112.37 145 115.5 L 147 122.5 L 145.5 125 L 143.5 125 L 140.5 124 L 138.5 124 L 135.5 126 L 135 118.5 L 136.5 116 L 134 117.5 L 132.5 121 L 132 119.5 L 136.5 114 L 138.5 113 Z M 140 115 L 137 118 L 139 121 L 142 120 L 144 121 L 142 117 Q 143 114 140 115 Z " /><path fill="rgb(48,66,40)" stroke="rgb(48,66,40)" stroke-width="0" opacity="0.996078431372549" d="M 179.5 113 L 185 115 L 187 119.5 L 186 119.5 L 183.5 116 L 183 117.5 Q 185.8 119.2 185 124.5 L 183.5 126 Q 182 122.5 180.5 125 L 177.5 124 L 175.5 124 L 172 125 Q 171.75 117.5 176.5 114 L 179.5 113 Z M 178 115 L 175 116 Q 172 123 179 121 L 181 118 L 178 115 Z " /><path fill="rgb(121,109,78)" stroke="rgb(121,109,78)" stroke-width="0" opacity="0.996078431372549" d="M 182.5 46 L 183 48.5 L 174.5 59 L 165 63.5 L 164 71.5 L 166 74.5 L 163.5 73 L 158 71 Q 158.78 64.78 154.5 62 L 152.5 63 L 146 59.5 Q 148.06 57.06 153.5 58 L 155.5 58 L 163 56 Q 161.87 53.33 164.5 54 L 163 56.5 L 164.5 58 L 171 56 L 171.5 53 L 173.5 54 L 173.5 52 L 175.5 51 L 179 53.5 L 180 51.5 L 177 50.5 L 182 48 L 182.5 46 Z " /><path fill="rgb(121,109,78)" stroke="rgb(121,109,78)" stroke-width="0" opacity="0.996078431372549" d="M 202.5 70 L 203 74.5 L 197.5 84 L 198 82.5 Q 202.02 78.02 202.5 70 Z " /><path fill="rgb(121,109,78)" stroke="rgb(121,109,78)" stroke-width="0" opacity="0.996078431372549" d="M 138 76 Q 141.67 74.65 140 80.5 L 140 82.5 L 138.5 87 L 134.5 88 L 134 86 Q 129.04 86.83 127 83.5 L 129.5 83 L 135.5 82 L 137 82.5 L 135.5 80 L 134 78.5 L 133.5 77 L 136.5 79 L 138 76 Z " /><path fill="rgb(121,109,78)" stroke="rgb(121,109,78)" stroke-width="0" opacity="0.996078431372549" d="M 185.5 79 L 187 79.5 L 186.5 82 Q 183.17 80.88 184 83.5 L 182.5 86 L 190 87.5 L 187.5 89 L 181 87 L 180 82.5 L 181 80 L 185.5 79 Z " /><path fill="rgb(121,109,78)" stroke="rgb(121,109,78)" stroke-width="0" opacity="0.996078431372549" d="M 194.5 82 L 196 82.5 L 194.5 86 L 191.5 87 L 190.5 85 L 192.5 86 Q 190.83 84 194.5 82 Z " /><path fill="rgb(121,109,78)" stroke="rgb(121,109,78)" stroke-width="0" opacity="0.996078431372549" d="M 237.5 107 L 239 108.5 L 240 109.5 L 240 117.5 L 239 117.5 L 238.5 109 L 234 111 Q 235.12 113.67 232.5 113 L 223 121.5 L 219.5 126 L 218 126.5 L 221 127.5 L 213.5 136 L 211 137.5 L 213.5 138 L 216.5 137 L 216.5 138 L 212 140.5 Q 214.5 142 211 143.5 L 211 146 Q 205.8 144.33 207 148 L 211 149 L 212 152.5 L 209 153.5 L 213.5 154 L 222.5 149 L 221.5 151 L 217 153.5 L 216.5 155 L 214.5 155 L 211 156.5 L 212 158.5 L 211.5 161 Q 210 157.5 208.5 160 L 206 161.5 L 208.5 162 L 210 161.5 L 211 163.5 L 209 163.5 L 205 170.5 L 205.5 172 L 203 171 L 201 162.5 L 190 149.5 L 191 147 L 188.5 148 L 178 146 Q 177 150.25 180 151.5 L 178 152 L 175.5 148 L 171.5 147 L 169.5 148 L 167.5 148 L 166 149.5 L 163.5 148 L 158.5 149 L 156.5 148 L 154.5 148 L 152.5 149 Q 149.9 145.6 142.5 147 L 140 151 L 138 150.5 L 140 145 Q 134.62 146.5 133 143.5 L 138.5 141 Q 142.25 144.75 150.5 144 L 152.5 146 L 153.5 145 L 169.5 145 L 182.5 142 L 187.5 145 L 194 139.5 L 203.5 125 L 206 125.5 L 204 130.5 L 205 133.5 L 204 137 L 201.5 136 L 199 140.5 L 202 141.5 Q 202.5 146.5 198.5 147 L 195 147.5 L 200.5 148 L 205 144.5 L 206 139.5 L 205.5 138 L 214 131.5 L 216.5 128 L 218 127.5 L 218 125.5 L 225.5 114 Q 229.84 109.34 238 108.5 L 237.5 107 Z " /><path fill="rgb(121,109,78)" stroke="rgb(121,109,78)" stroke-width="0" opacity="0.996078431372549" d="M 83.5 108 Q 93.64 110.36 99 117.5 L 104 125.5 L 102.5 126 L 98 124 Q 99.5 120.25 96.5 121 Q 93.46 114.11 85 114 L 83.5 108 Z " /><path fill="rgb(121,109,78)" stroke="rgb(121,109,78)" stroke-width="0" opacity="0.996078431372549" d="M 146.5 123 L 147 125.5 L 144.5 129 L 143.5 126 L 139.5 127 L 138 126.5 L 137 128.5 L 137.5 130 L 135 126.5 L 138.5 124 L 140.5 124 L 143.5 125 L 146 124.5 L 146.5 123 Z " /><path fill="rgb(121,109,78)" stroke="rgb(121,109,78)" stroke-width="0" opacity="0.996078431372549" d="M 117.5 124 L 117.5 126 L 120 127.5 L 119.5 129 L 122 130.5 Q 125 139.5 132 144.5 L 128 146 L 129 148.5 L 117 163.5 L 116 170 L 122 171.5 L 118.5 172 L 116.5 171 L 113 173.5 Q 116.5 172 114 170.5 L 112 161 L 115 160.5 L 112.5 159 L 110 160.5 L 111 158.5 L 110 156 L 113 155.5 L 106.5 154 L 103 156.5 L 106.5 152 L 113.5 154 L 113.5 153 L 112 151.5 L 111 148 L 114 146.5 L 109 145.5 L 110 142.5 L 109 140.5 L 113 138.5 L 103 133.5 L 105 133.5 L 100 127.5 L 102.5 127 L 108 131.5 L 110.5 135 L 115 137 L 114 140.5 L 118.5 146 L 124.5 147 L 124.5 146 L 118 142.5 L 118.5 140 Q 119.75 142.25 121 139.5 Q 122.5 135.13 119.5 136 L 117.5 136 L 116 134.5 Q 119.5 133 117 131.5 L 115 125 L 117.5 124 Z " /><path fill="rgb(121,109,78)" stroke="rgb(121,109,78)" stroke-width="0" opacity="0.996078431372549" d="M 174.5 124 L 176.5 125 L 178.5 124 L 180.5 125 L 181.5 124 Q 183.25 127.08 185 125.5 L 181.5 130 L 182 128.5 L 180.5 126 L 175 127 L 174.5 129 L 172 125.5 L 174.5 124 Z " /><path fill="rgb(121,109,78)" stroke="rgb(121,109,78)" stroke-width="0" opacity="0.996078431372549" d="M 157.5 129 L 164 130 L 163.5 133 L 163 131 L 156 131 L 156 133.5 L 155 133.5 L 154 130.5 L 157.5 129 Z " /><path fill="rgb(121,109,78)" stroke="rgb(121,109,78)" stroke-width="0" opacity="0.996078431372549" d="M 152.5 197 L 153 198.5 L 148.5 204 Q 141.96 205.04 140 201.5 L 139 199.5 L 141 200.5 L 142.5 202 L 148.5 203 L 152.5 197 Z " /><path fill="rgb(121,109,78)" stroke="rgb(121,109,78)" stroke-width="0" opacity="0.996078431372549" d="M 179.5 199 L 175.5 204 Q 168.25 205.25 167 200.5 L 170.5 203 Q 178.25 204.25 179.5 199 Z " /><path fill="rgb(211,217,150)" stroke="rgb(211,217,150)" stroke-width="0" opacity="0.996078431372549" d="M 155.5 5 Q 165.41 3.88 170 7 Q 171.13 9.67 168.5 9 Q 160.95 10.45 157 15.5 Q 151.73 20.73 152 31.5 Q 153.67 39.83 159.5 44 Q 164.33 48.67 175.5 47 L 185 43 L 183.5 48 L 182.5 46 L 182 48 L 180 48.5 L 182 51.5 L 174.5 60 L 165.5 64 L 166.5 62 L 171 60.5 L 170.5 59 L 172.5 60 L 172.5 58 L 174.5 59 Q 172.58 56.25 178 53.5 L 175.5 51 L 173 52.5 L 173.5 54 L 171.5 53 L 171 56 L 164.5 58 L 162 57.5 L 162.5 56 L 154.5 59 L 148.5 58 L 148.5 61 L 151.5 60 L 152.5 63 L 154.5 62 Q 158.78 64.78 158 71 L 164.5 74 L 165 72.5 L 164 65.5 L 165 65.5 Q 163.75 72.75 167.5 75 L 179.5 81 Q 180.68 72.68 186.5 69 L 197.5 64 L 204 64 L 203 68.5 L 204 74.5 L 197.5 85 L 190.5 88 L 182 85.5 L 184 82 L 187 81.5 L 186.5 79 L 181 80 L 180 82.5 L 181 87 L 187.5 89 L 189 88.5 L 197 102.5 L 199 117.5 Q 196.13 122.13 197 130.5 L 195 134.5 L 197 133.5 Q 201.54 122.54 210.5 116 Q 220.42 106.92 238.5 106 Q 242.87 109.13 241 118.5 L 235 138.5 L 224.5 150 L 218 153.5 Q 225.52 158.98 225 172.5 L 223 179 Q 210.2 179.03 204 171.5 L 210 161.5 L 208.5 162 L 206 161.5 L 209 159.5 L 208.5 158 Q 210.25 161.75 212 158.5 L 211 156.5 L 215.5 154 L 217 154.5 Q 217.83 151.88 214.5 153 L 209.5 154 L 209.5 153 L 212 152.5 L 211 149 L 207 148 Q 205.8 144.33 211 146 L 211 143.5 Q 214.75 141.75 211.5 140 Q 207.75 141 209 138 L 218 131.5 L 221 127.5 L 218.5 127 L 214 130.5 L 208.5 137 L 205 138.5 L 206 142.5 L 202.5 147 L 195.5 148 L 195.5 147 Q 201.25 147.75 202 143.5 L 201.5 141 Q 200.25 143.25 199 140.5 L 201.5 136 L 204 137 L 205 131.5 L 205 129.5 L 206 125.5 L 203.5 125 L 202.5 128 L 201 127.5 L 194.5 138 L 195 136.5 L 194.5 135 Q 191.25 140 185 141 Q 183.88 143.67 186.5 143 L 187.5 145 Q 185.56 141.44 179.5 142 Q 169.08 147.08 151.5 145 L 137.5 141 L 133 143.5 Q 134.62 146.5 140 145 L 138 150.5 L 140 151 L 142.5 147 Q 149.9 145.6 152.5 149 L 154.5 148 L 156.5 148 L 158.5 149 L 163.5 148 L 166 149.5 L 167.5 148 L 169.5 148 L 172.5 147 L 177.5 150 L 178 146 L 187.5 147 L 189.5 147 L 191 148.5 L 190 149.5 L 196 155.5 L 202 164.5 L 203 171.5 Q 201 176 192.5 174 L 188.5 172 L 189 173.5 Q 189.78 182.28 187 187.5 L 177.5 204 L 170.5 205 L 167 202.5 L 163 192 L 156.5 192 L 156 193.5 Q 154.15 201.15 148.5 205 Q 140.91 206.09 139 201.5 L 130 181.5 L 130 173.5 L 131 171.5 L 129.5 172 L 118.5 173 L 116.5 172 Q 111.66 178.66 100.5 179 Q 95.92 175.58 98 165.5 Q 99.56 157.56 105 153.5 Q 96.12 150.37 91 143.5 Q 82.71 134.29 82 117.5 L 83 110.5 L 82 110.5 L 81.5 116 L 81 110.5 L 83.5 107 Q 92.89 106.11 98.5 109 L 116 120.5 L 122.5 130 L 123 123.5 L 122 122.5 L 122 107.5 Q 125.1 95.1 133 87.5 Q 126.22 86.28 123 81.5 Q 117.77 76.23 119 64.5 Q 120.25 61.75 125.5 63 L 138 70.5 Q 141.54 73.46 141.5 80 L 153 73.5 L 154 66.5 L 150.5 62 Q 141.12 59.88 136 53.5 Q 128.98 46.52 129 32.5 Q 131.22 17.72 141.5 11 L 155.5 5 Z M 138 76 L 137 79 L 134 78 Q 133 81 136 80 L 137 83 L 136 82 L 130 83 L 129 85 L 131 84 L 132 85 L 130 86 L 134 86 L 135 88 L 139 87 L 135 86 L 139 84 L 140 86 L 140 83 L 140 81 Q 142 75 138 76 Z M 84 108 L 85 114 Q 93 114 97 121 Q 99 120 98 124 L 103 126 L 104 126 L 99 118 Q 94 110 84 108 Z M 235 109 L 226 114 L 218 125 L 220 126 L 223 122 L 233 113 Q 235 114 234 111 L 238 110 L 235 109 Z M 138 113 L 134 115 L 131 122 L 132 124 L 134 119 L 136 118 L 133 124 L 137 129 L 138 127 L 140 127 L 144 126 L 145 129 L 147 126 L 146 117 Q 145 112 138 113 Z M 178 113 L 172 121 Q 171 127 175 129 L 175 127 L 181 126 L 183 129 L 185 126 L 184 119 L 185 117 L 187 125 L 188 125 Q 189 119 186 117 Q 184 112 178 113 Z M 115 125 L 118 133 L 116 136 L 120 134 L 120 136 Q 122 135 121 140 Q 120 142 119 140 L 118 143 L 125 146 L 125 147 L 119 146 L 114 141 L 115 137 L 111 135 L 108 132 Q 106 127 101 127 L 105 133 L 104 135 L 113 139 L 109 141 L 110 143 L 109 146 L 114 147 L 111 148 L 112 152 L 114 153 L 114 154 L 107 152 L 106 154 L 113 156 L 110 156 L 111 160 L 113 159 L 115 161 L 112 161 Q 111 168 116 172 L 118 171 L 116 170 L 117 164 L 129 149 L 128 146 L 132 145 Q 125 140 122 131 L 120 129 Q 117 128 119 127 L 115 125 Z M 158 129 L 154 131 L 155 134 L 156 134 L 156 131 L 163 131 L 164 133 L 164 130 L 158 129 Z M 127 137 L 132 143 L 135 142 L 127 137 Z " /><path fill="rgb(211,217,150)" stroke="rgb(211,217,150)" stroke-width="0" opacity="0.996078431372549" d="M 176.5 116 L 176 117.5 Q 174.75 121.25 178.5 120 L 180 119.5 L 176.5 121 L 175 117.5 L 176.5 116 Z " /><path fill="rgb(253,253,253)" stroke="rgb(253,253,253)" stroke-width="0" opacity="0" d="M 0 0 L 320 0 L 320 213 L 0 213 L 0 0 Z M 156 5 L 142 11 Q 131 18 129 33 Q 129 47 136 54 Q 141 60 151 62 L 154 67 L 153 74 L 142 80 Q 142 73 138 71 L 126 63 Q 120 62 119 65 Q 118 76 123 82 Q 126 86 133 88 Q 125 95 122 108 L 122 123 L 123 124 L 123 130 L 116 121 L 99 109 Q 93 106 84 107 L 81 111 Q 81 132 91 144 Q 96 150 105 154 Q 100 158 98 166 Q 96 176 101 179 Q 112 179 117 172 L 119 173 L 130 172 L 131 172 L 130 174 L 130 182 L 139 202 Q 141 206 149 205 Q 154 201 156 194 L 157 192 L 163 192 L 167 203 L 171 205 L 178 204 L 187 188 Q 190 182 189 174 L 189 172 L 193 174 Q 202 176 204 171 Q 210 179 223 179 L 225 173 Q 226 159 218 154 L 225 150 L 235 139 L 241 119 Q 243 109 239 106 Q 220 107 211 116 L 202 125 L 194 139 L 189 144 L 187 143 Q 184 144 185 141 L 191 139 L 197 131 Q 196 122 199 118 L 197 103 L 189 88 Q 195 89 198 85 Q 206 79 204 64 L 198 64 L 187 69 Q 181 73 180 81 L 168 75 Q 164 72 165 65 L 175 60 Q 183 54 185 43 L 176 47 Q 164 49 160 44 Q 154 40 152 32 Q 152 21 157 16 Q 161 10 169 9 Q 171 10 170 7 Q 165 4 156 5 Z " /><path fill="rgb(253,253,253)" stroke="rgb(253,253,253)" stroke-width="0" opacity="0" d="M 124.5 133 L 127.5 137 L 135 141.5 L 131.5 143 Q 126 139 124.5 133 Z " /></svg>