<?xml version="1.0" encoding="UTF-8"?>
<svg xmlns="http://www.w3.org/2000/svg" viewBox="0 0 200 240" role="img" aria-label="snow-dragon">
  <circle cx="100" cy="118" r="96" fill="none" stroke="#ffd700" stroke-width="4" opacity="0.65"/><circle cx="100" cy="118" r="88" fill="none" stroke="#fff" stroke-width="1" opacity="0.35"/>
  <ellipse cx="100" cy="200" rx="52" ry="10" fill="#000" opacity="0.12"/>
  <ellipse cx="100" cy="138" rx="58" ry="62" fill="#e8f0ff"/>
  <ellipse cx="100" cy="138" rx="52" ry="56" fill="#e8f0ff" stroke="#88a8ff" stroke-width="2" opacity="0.35"/>
  <circle cx="100" cy="82" r="44" fill="#e8f0ff"/>
  <path d="M 52 95 Q 35 75 45 55" fill="none" stroke="#88a8ff" stroke-width="5"/><path d="M 148 95 Q 165 75 155 55" fill="none" stroke="#88a8ff" stroke-width="5"/><polygon points="100,32 94,48 106,48" fill="#88a8ff"/>
  
    <ellipse cx="82" cy="88" rx="10" ry="12" fill="#fff"/>
    <ellipse cx="118" cy="88" rx="10" ry="12" fill="#fff"/>
    <circle cx="84" cy="90" r="6" fill="#384878"/>
    <circle cx="120" cy="90" r="6" fill="#384878"/>
    <circle cx="86" cy="88" r="2" fill="#fff"/>
    <circle cx="122" cy="88" r="2" fill="#fff"/>
  
  <path d="M 88 108 Q 100 118 112 108" fill="none" stroke="#384878" stroke-width="2.5" stroke-linecap="round"/>
  <ellipse cx="72" cy="148" rx="14" ry="20" fill="#e8f0ff" stroke="#88a8ff" stroke-width="1.5"/>
  <ellipse cx="128" cy="148" rx="14" ry="20" fill="#e8f0ff" stroke="#88a8ff" stroke-width="1.5"/>
  <ellipse cx="82" cy="188" rx="16" ry="10" fill="#88a8ff" opacity="0.55"/>
  <ellipse cx="118" cy="188" rx="16" ry="10" fill="#88a8ff" opacity="0.55"/>
</svg>