<?xml version="1.0" encoding="UTF-8"?>
<svg xmlns="http://www.w3.org/2000/svg" viewBox="0 0 200 240" role="img" aria-label="spring-koi">
  <circle cx="100" cy="118" r="88" fill="none" stroke="#5a9fd4" stroke-width="2" opacity="0.35"/>
  <ellipse cx="100" cy="200" rx="52" ry="10" fill="#000" opacity="0.12"/>
  <ellipse cx="100" cy="138" rx="58" ry="62" fill="#ffe8e0"/>
  <ellipse cx="100" cy="138" rx="52" ry="56" fill="#ffe8e0" stroke="#ff9878" stroke-width="2" opacity="0.35"/>
  <circle cx="100" cy="82" r="44" fill="#ffe8e0"/>
  <path d="M 60 100 Q 100 60 140 100 Q 100 80 60 100" fill="#ff9878" opacity="0.7"/>
  
    <ellipse cx="82" cy="88" rx="10" ry="12" fill="#fff"/>
    <ellipse cx="118" cy="88" rx="10" ry="12" fill="#fff"/>
    <circle cx="84" cy="90" r="6" fill="#984838"/>
    <circle cx="120" cy="90" r="6" fill="#984838"/>
    <circle cx="86" cy="88" r="2" fill="#fff"/>
    <circle cx="122" cy="88" r="2" fill="#fff"/>
  
  <path d="M 88 108 Q 100 118 112 108" fill="none" stroke="#984838" stroke-width="2.5" stroke-linecap="round"/>
  <ellipse cx="72" cy="148" rx="14" ry="20" fill="#ffe8e0" stroke="#ff9878" stroke-width="1.5"/>
  <ellipse cx="128" cy="148" rx="14" ry="20" fill="#ffe8e0" stroke="#ff9878" stroke-width="1.5"/>
  <ellipse cx="82" cy="188" rx="16" ry="10" fill="#ff9878" opacity="0.55"/>
  <ellipse cx="118" cy="188" rx="16" ry="10" fill="#ff9878" opacity="0.55"/>
</svg>