<?xml version="1.0" encoding="UTF-8"?>
<svg xmlns="http://www.w3.org/2000/svg" viewBox="0 0 200 240" role="img" aria-label="spring-pearl">
  <circle cx="100" cy="118" r="92" fill="none" stroke="#ffb347" stroke-width="3" opacity="0.55"/><circle cx="100" cy="118" r="86" fill="none" stroke="#ffd700" stroke-width="1" opacity="0.4"/>
  <ellipse cx="100" cy="200" rx="52" ry="10" fill="#000" opacity="0.12"/>
  <ellipse cx="100" cy="138" rx="58" ry="62" fill="#f8f0ff"/>
  <ellipse cx="100" cy="138" rx="52" ry="56" fill="#f8f0ff" stroke="#d8b8ff" stroke-width="2" opacity="0.35"/>
  <circle cx="100" cy="82" r="44" fill="#f8f0ff"/>
  <circle cx="100" cy="44" r="16" fill="#d8b8ff"/><circle cx="94" cy="40" r="4" fill="#fff" opacity="0.7"/>
  
    <ellipse cx="82" cy="88" rx="10" ry="12" fill="#fff"/>
    <ellipse cx="118" cy="88" rx="10" ry="12" fill="#fff"/>
    <circle cx="84" cy="90" r="6" fill="#6858a8"/>
    <circle cx="120" cy="90" r="6" fill="#6858a8"/>
    <circle cx="86" cy="88" r="2" fill="#fff"/>
    <circle cx="122" cy="88" r="2" fill="#fff"/>
  
  <path d="M 88 108 Q 100 118 112 108" fill="none" stroke="#6858a8" stroke-width="2.5" stroke-linecap="round"/>
  <ellipse cx="72" cy="148" rx="14" ry="20" fill="#f8f0ff" stroke="#d8b8ff" stroke-width="1.5"/>
  <ellipse cx="128" cy="148" rx="14" ry="20" fill="#f8f0ff" stroke="#d8b8ff" stroke-width="1.5"/>
  <ellipse cx="82" cy="188" rx="16" ry="10" fill="#d8b8ff" opacity="0.55"/>
  <ellipse cx="118" cy="188" rx="16" ry="10" fill="#d8b8ff" opacity="0.55"/>
</svg>