<?xml version="1.0" encoding="UTF-8"?>
<svg xmlns="http://www.w3.org/2000/svg" viewBox="0 0 200 240" role="img" aria-label="spring-angel">
  <circle cx="100" cy="118" r="96" fill="none" stroke="#ffd700" stroke-width="4" opacity="0.65"/><circle cx="100" cy="118" r="88" fill="none" stroke="#fff" stroke-width="1" opacity="0.35"/>
  <ellipse cx="100" cy="200" rx="52" ry="10" fill="#000" opacity="0.12"/>
  <ellipse cx="100" cy="138" rx="58" ry="62" fill="#fff8fc"/>
  <ellipse cx="100" cy="138" rx="52" ry="56" fill="#fff8fc" stroke="#ffd8f0" stroke-width="2" opacity="0.35"/>
  <circle cx="100" cy="82" r="44" fill="#fff8fc"/>
  <ellipse cx="68" cy="90" rx="18" ry="28" fill="#ffd8f0" opacity="0.45"/><ellipse cx="132" cy="90" rx="18" ry="28" fill="#ffd8f0" opacity="0.45"/>
  
    <ellipse cx="82" cy="88" rx="10" ry="12" fill="#fff"/>
    <ellipse cx="118" cy="88" rx="10" ry="12" fill="#fff"/>
    <circle cx="84" cy="90" r="6" fill="#886878"/>
    <circle cx="120" cy="90" r="6" fill="#886878"/>
    <circle cx="86" cy="88" r="2" fill="#fff"/>
    <circle cx="122" cy="88" r="2" fill="#fff"/>
  
  <path d="M 88 108 Q 100 118 112 108" fill="none" stroke="#886878" stroke-width="2.5" stroke-linecap="round"/>
  <ellipse cx="72" cy="148" rx="14" ry="20" fill="#fff8fc" stroke="#ffd8f0" stroke-width="1.5"/>
  <ellipse cx="128" cy="148" rx="14" ry="20" fill="#fff8fc" stroke="#ffd8f0" stroke-width="1.5"/>
  <ellipse cx="82" cy="188" rx="16" ry="10" fill="#ffd8f0" opacity="0.55"/>
  <ellipse cx="118" cy="188" rx="16" ry="10" fill="#ffd8f0" opacity="0.55"/>
</svg>