<?xml version="1.0" encoding="UTF-8"?>
<svg xmlns="http://www.w3.org/2000/svg" viewBox="0 0 1920 1080" preserveAspectRatio="xMidYMid slice" role="img" aria-label="moon-meadow">
  <defs>
    <linearGradient id="sky-moon-meadow" x1="0" y1="0" x2="0" y2="1">
      <stop offset="0%" stop-color="#1a2848"/>
      <stop offset="100%" stop-color="#3a5888"/>
    </linearGradient>
    <linearGradient id="ground-moon-meadow" x1="0" y1="0" x2="0" y2="1">
      <stop offset="0%" stop-color="#5a9848"/>
      <stop offset="100%" stop-color="#9ed56b"/>
    </linearGradient>
  </defs>
  <rect width="1920" height="1080" fill="url(#sky-moon-meadow)"/>
  <ellipse cx="960" cy="780" rx="980" ry="420" fill="url(#ground-moon-meadow)"/>
  <ellipse cx="200" cy="620" rx="280" ry="200" fill="#5a9848" opacity="0.55"/>
  <ellipse cx="1720" cy="640" rx="300" ry="220" fill="#5a9848" opacity="0.55"/>
  <circle cx="120" cy="520" r="4" fill="#ffe878" opacity="0.75"/><circle cx="193" cy="567" r="4" fill="#ffe878" opacity="0.75"/><circle cx="266" cy="614" r="4" fill="#ffe878" opacity="0.75"/><circle cx="339" cy="661" r="4" fill="#ffe878" opacity="0.75"/><circle cx="412" cy="708" r="4" fill="#ffe878" opacity="0.75"/><circle cx="485" cy="755" r="4" fill="#ffe878" opacity="0.75"/><circle cx="558" cy="802" r="4" fill="#ffe878" opacity="0.75"/><circle cx="631" cy="849" r="4" fill="#ffe878" opacity="0.75"/><circle cx="704" cy="896" r="4" fill="#ffe878" opacity="0.75"/><circle cx="777" cy="563" r="4" fill="#ffe878" opacity="0.75"/><circle cx="850" cy="610" r="4" fill="#ffe878" opacity="0.75"/><circle cx="923" cy="657" r="4" fill="#ffe878" opacity="0.75"/><circle cx="996" cy="704" r="4" fill="#ffe878" opacity="0.75"/><circle cx="1069" cy="751" r="4" fill="#ffe878" opacity="0.75"/><circle cx="1142" cy="798" r="4" fill="#ffe878" opacity="0.75"/><circle cx="1215" cy="845" r="4" fill="#ffe878" opacity="0.75"/><circle cx="1288" cy="892" r="4" fill="#ffe878" opacity="0.75"/><circle cx="1361" cy="559" r="4" fill="#ffe878" opacity="0.75"/><circle cx="1434" cy="606" r="4" fill="#ffe878" opacity="0.75"/><circle cx="1507" cy="653" r="4" fill="#ffe878" opacity="0.75"/><circle cx="1580" cy="700" r="4" fill="#ffe878" opacity="0.75"/><circle cx="1653" cy="747" r="4" fill="#ffe878" opacity="0.75"/><circle cx="1726" cy="794" r="4" fill="#ffe878" opacity="0.75"/><circle cx="1799" cy="841" r="4" fill="#ffe878" opacity="0.75"/>
  <ellipse cx="960" cy="720" rx="520" ry="120" fill="#9ed56b" opacity="0.35"/>
</svg>