<svg role="img" aria-label="talia-point" viewBox="0 0 320 213" version="1.1" xmlns="http://www.w3.org/2000/svg" desc="Created with imagetracer.js version 1.2.6" ><path fill="rgb(104,57,31)" stroke="rgb(104,57,31)" stroke-width="0" opacity="0.996078431372549" d="M 158.5 7 L 168 9.5 L 167 12.5 L 169 11.5 L 170.5 9 Q 185.25 11.25 193 20.5 L 198.5 27 L 205 31 L 210 37.5 L 205.5 34 L 200.5 31 L 201 32.5 L 205 42.5 L 203 42.5 Q 201.88 45.83 204.5 45 Q 205.75 42.75 207 45.5 L 205 48.5 L 206.5 48 L 208 48.5 L 206 49.5 L 214 59.5 L 208.5 55 L 207 55.5 L 209 61.5 L 208 61.5 L 207.5 59 L 207 62.5 L 208 66.5 L 207 69.5 L 208 73.5 L 207 73.5 L 204.5 66 L 201 76.5 Q 201.9 84.85 200 89 Q 195.75 90 194.5 87 Q 193.28 93.78 188.5 97 L 187.5 95 L 181.5 96 L 177.5 95 L 179.5 99 L 178 98.5 L 181 105 L 187.5 106 L 189 105.5 L 188 107.5 L 193 114.5 L 193 119.5 L 192.5 121 L 197 118.5 L 197.5 114 L 198 118.5 L 195 123 Q 200.5 122.25 202 127.5 L 207 142.5 L 197.5 153 L 192 153 Q 193.5 156.75 190.5 156 L 188.5 157 L 184 154.5 L 183.5 152 L 182 152.5 L 180.5 149 L 177.5 153 L 178 151.5 L 178 148 Q 174.25 149.5 175 146.5 L 176 144.5 L 174.5 145 L 170 146.5 L 170.5 148 L 164 151 L 163.5 153 L 162.5 151 L 161 154 L 149.5 155 L 149.5 154 Q 155.5 155.5 157 152.5 L 148.5 151 L 147.5 154 L 142.5 151 L 141.5 153 L 141 151 L 136 153.5 Q 136.44 165.94 129.5 171 L 125 174.5 L 126 181.5 L 125 181.5 L 124 169.5 L 126 159.5 L 124 159.5 L 123.5 157 L 117 169.5 L 119 168.5 L 119.5 166 L 120 179 Q 117.33 180.13 118 177.5 L 114 175 L 118 162.5 L 127.5 149 L 128 151.5 L 127 155.5 L 129 154.5 L 130 151.5 L 143.5 138 L 148 134.5 L 149.5 132 Q 153.38 136.62 162 136.5 L 161 138.5 L 163.5 137 L 171.5 134 L 174 131.5 L 172.5 127 Q 166.36 130.86 154.5 129 L 153 126.5 Q 157.38 121.38 157.5 112 L 158 117 L 165 115.5 L 164 113 L 156 110 L 156.5 107 L 165.5 113 L 169 112 L 170 103.5 L 165.5 98 L 164.5 102 L 163 96 L 161 95.5 Q 162.25 92.75 167.5 94 L 167.5 95 L 165 95.5 L 170.5 102 L 171 97 L 173 96.5 L 170.5 93 Q 179.13 92.13 183 86.5 Q 182.17 83.88 185.5 85 L 189 80.5 L 186.5 82 L 184 81.5 L 189 78.5 L 188.5 77 L 186 78.5 L 188 74.5 L 185 75.5 L 186 71.5 L 182.5 67 L 181 67.5 L 182 73.5 L 181 76 L 177.5 74 L 175.5 75 Q 173.75 71.92 172 73.5 Q 171.61 67.11 175.5 65 L 183.5 64 L 187 66 L 188 71 Q 191.67 72.35 190 66.5 Q 193.17 63.17 192 55.5 L 190 46.5 L 191 46.5 L 191.5 48 L 192.5 44 L 193 47.5 L 193 49.5 Q 194.73 65.23 190 74.5 L 191.5 74 Q 194.5 74.87 193 70.5 L 196 66.5 L 197 56.5 L 198.5 55 L 200 53.5 Q 196.83 50.17 198 42.5 L 195 35 Q 192 36.25 193 32.5 Q 191.66 24.34 186 20.5 L 188.5 22 L 190 21.5 Q 188.83 18.25 185 19 L 186 16.5 L 176.5 11 L 172.5 11 L 170 12 L 171 15.5 L 169 16.5 L 168.5 15 Q 166.5 19 164.5 15 L 160 11.5 L 161.5 11 L 163.5 12 L 163.5 10 L 165 9.5 L 158.5 8 L 158.5 7 Z M 189 88 L 187 91 L 184 93 Q 181 92 182 95 L 186 94 L 190 89 L 189 88 Z M 181 106 L 178 110 L 181 116 L 185 117 Q 186 111 183 109 Q 184 105 181 106 Z M 181 117 L 180 123 L 178 123 L 177 125 L 178 127 L 181 129 L 180 127 L 181 125 L 190 140 L 191 137 L 182 123 L 181 117 Z M 152 143 L 152 145 L 159 147 Q 161 148 160 145 L 162 145 L 160 143 L 157 144 L 152 143 Z M 153 146 Q 151 149 149 148 L 151 150 Q 155 151 154 148 L 156 148 L 153 146 Z " /><path fill="rgb(104,57,31)" stroke="rgb(104,57,31)" stroke-width="0" opacity="0.996078431372549" d="M 197.5 11 Q 203.96 13.54 204 22.5 L 202 23.5 L 203 18.5 L 197.5 11 Z " /><path fill="rgb(104,57,31)" stroke="rgb(104,57,31)" stroke-width="0" opacity="0.996078431372549" d="M 159.5 16 Q 165 15 166 18.5 Q 166.58 21.25 160.5 20 Q 150.6 22.6 145.5 30 L 148 26.5 L 154.5 19 L 159.5 16 Z " /><path fill="rgb(104,57,31)" stroke="rgb(104,57,31)" stroke-width="0" opacity="0.996078431372549" d="M 173.5 17 L 182 22.5 L 191 38.5 L 190 38.5 Q 186.95 28.05 178.5 23 L 172.5 20 L 170.5 20 L 169 19.5 L 173.5 17 Z " /><path fill="rgb(104,57,31)" stroke="rgb(104,57,31)" stroke-width="0" opacity="0.996078431372549" d="M 172.5 22 L 176 23.5 L 176 25.5 L 177 28.5 L 176 28.5 L 172.5 22 Z " /><path fill="rgb(104,57,31)" stroke="rgb(104,57,31)" stroke-width="0" opacity="0.996078431372549" d="M 122.5 49 L 122 50.5 L 119.5 55 L 118 53.5 L 118.5 52 L 117 51.5 L 122.5 49 Z " /><path fill="rgb(104,57,31)" stroke="rgb(104,57,31)" stroke-width="0" opacity="0.996078431372549" d="M 136.5 49 L 137 55.5 L 136 57.5 L 138 57.5 L 137 62 Q 140.21 59.04 147.5 59 L 154 62.5 L 155 64.5 L 153.5 65 L 152 64.5 L 151.5 71 Q 149.5 67 147.5 71 L 144.5 69 L 143 71.5 L 143.5 73 Q 139.75 71.75 141 65.5 L 142 63.5 L 138 66.5 L 137.5 70 L 137 68 Q 134.33 69.13 135 66.5 Q 132.75 65.25 135.5 64 L 137 62.5 L 135 62.5 Q 133.88 53.88 136.5 49 Z " /><path fill="rgb(104,57,31)" stroke="rgb(104,57,31)" stroke-width="0" opacity="0.996078431372549" d="M 123.5 55 L 125 66.5 L 123 72.5 L 128.5 80 L 133.5 82 L 138 81 L 142.5 87 L 147 89.5 L 145 93.5 L 147 99.5 L 146 99.5 L 142.5 95 L 137.5 97 L 135.5 97 L 130.5 96 L 125.5 105 L 126 103.5 L 125.5 102 L 118 106.5 L 114.5 111 L 111 112 L 112 114.5 L 108.5 120 Q 105.88 119.33 107 122 L 112 123.5 L 109.5 130 Q 106.17 128.88 107 131.5 L 107.5 133 L 105 131.5 L 104.5 130 L 103.5 131 L 101 129.5 L 101 131 L 98 131 Q 99.13 133.67 96.5 133 L 95 133.5 L 93 130.5 L 91 125.5 L 93.5 124 L 93.5 125 Q 90.88 124.17 92 127.5 L 94.5 131 L 97 128.5 Q 93.25 126.75 96.5 125 L 98 124.5 L 96 124 L 95 118.5 L 97 117.5 L 99.5 121 L 100 119 L 103.5 118 L 103 119.5 L 103.5 121 L 108 117.5 L 109 115.5 L 105.5 114 L 101 117 Q 102.5 110.71 98.5 109 L 97 109.5 L 101 106.5 Q 99.75 110.25 103.5 109 Q 107.88 105.38 107 98 L 105 97.5 L 106 95.5 L 104.5 96 L 102.5 97 L 103.5 95 L 105 93.5 L 104.5 92 Q 108.75 93.33 108 98 Q 110.67 99.13 110 96.5 L 111 96.5 L 111.5 98 Q 116.31 95.81 115 87.5 L 110.5 85 L 109 85.5 L 111 82.5 L 108 78 Q 103.13 78.08 101 74.5 L 101.5 67 Q 100.5 75 105.5 77 Q 108.13 77.83 107 74.5 L 108 74.5 Q 106.5 78.88 109.5 78 L 112 79.5 L 111 75.5 L 112 75.5 L 114.5 81 L 118 83 L 118.5 79 L 120 79.5 L 118.5 74 L 117.5 77 Q 114.8 73.2 116 65.5 L 117.5 62 L 118 68.5 L 119.5 70 Q 119.07 60.07 123.5 55 Z M 126 87 L 120 90 L 118 93 L 121 92 L 122 93 L 120 94 L 123 95 Q 126 96 125 94 L 127 94 L 130 94 L 129 93 L 131 90 L 126 87 Z M 116 97 L 112 99 L 109 103 L 111 102 L 111 104 L 114 104 L 121 101 L 122 99 L 116 97 Z M 110 105 L 107 107 L 104 111 L 107 112 L 114 108 L 110 105 Z M 106 123 L 108 126 L 105 127 L 108 128 L 110 125 Q 111 121 106 123 Z " /><path fill="rgb(104,57,31)" stroke="rgb(104,57,31)" stroke-width="0" opacity="0.996078431372549" d="M 151.5 98 L 154 98.5 L 152 99 Q 154.56 102.81 154 110.5 L 145.5 126 L 143.5 127 Q 141.75 123.25 140 126.5 L 138.5 128 L 135.5 126 L 133 127.5 L 131.5 125 L 127 126 L 125.5 122 L 124 122.5 L 126 116.5 Q 123.5 115 127 113.5 L 126 110.5 L 132.5 110 L 138.5 111 L 142 113.5 L 143.5 118 L 146.5 114 L 148 113.5 L 148 103.5 L 147 101 L 151.5 98 Z " /><path fill="rgb(104,57,31)" stroke="rgb(104,57,31)" stroke-width="0" opacity="0.996078431372549" d="M 134.5 133 Q 138.25 135.25 133 137.5 L 131.5 140 L 132 138.5 L 135 134.5 L 134.5 133 Z " /><path fill="rgb(104,57,31)" stroke="rgb(104,57,31)" stroke-width="0" opacity="0.996078431372549" d="M 113.5 136 L 111.5 139 Q 108.5 138.5 110 145.5 L 106.5 143 Q 100.34 143.66 99 139.5 L 100.5 140 L 103.5 140 L 108.5 144 L 109 142.5 L 104 138.5 L 105.5 139 Q 111.86 139.86 113.5 136 Z " /><path fill="rgb(104,57,31)" stroke="rgb(104,57,31)" stroke-width="0" opacity="0.996078431372549" d="M 130.5 141 L 130 142.5 L 129 147 L 126.5 148 L 128 145.5 L 130.5 141 Z " /><path fill="rgb(104,57,31)" stroke="rgb(104,57,31)" stroke-width="0" opacity="0.996078431372549" d="M 168.5 154 Q 179.5 151.5 182 157.5 L 179.5 164 L 177.5 160 Q 174.83 157.17 168.5 158 L 164 160 Q 165 163 162 162 Q 161.92 157.12 165.5 155 L 168.5 154 Z " /><path fill="rgb(104,57,31)" stroke="rgb(104,57,31)" stroke-width="0" opacity="0.996078431372549" d="M 142.5 158 L 146.5 163 L 154.5 164 L 159 160.5 L 159.5 159 L 160 161.5 L 157.5 166 L 150.5 168 L 143.5 166 Q 140.75 167.25 142 172.5 Q 143.95 176.55 149.5 177 L 153 174.5 L 155.5 171 L 155 172.5 L 155 176.5 L 151 182.5 Q 153.5 184 150 185.5 L 149 192.5 L 146.5 195 Q 140.25 196.25 139 192.5 L 137 180.5 L 138 177.5 L 137 171.5 L 143 162.5 L 142.5 158 Z " /><path fill="rgb(104,57,31)" stroke="rgb(104,57,31)" stroke-width="0" opacity="0.996078431372549" d="M 162.5 172 L 162 173.5 L 165.5 178 Q 172.31 178.88 175 177 L 176.5 174 L 178 177.5 Q 175.25 179.25 177 185.5 L 172 191.5 L 173 193.5 L 170 203.5 L 167.5 206 L 160.5 207 L 156 203.5 L 159 185.5 L 158 179.5 L 162.5 172 Z " /><path fill="rgb(104,57,31)" stroke="rgb(104,57,31)" stroke-width="0" opacity="0.996078431372549" d="M 116.5 181 L 117.5 184 L 123 187.5 L 122.5 189 L 119 186.5 L 118.5 188 L 115 182.5 L 116.5 181 Z " /><path fill="rgb(187,178,173)" stroke="rgb(187,178,173)" stroke-width="0" opacity="1" d="M 142.5 101 L 145.5 103 L 147 102.5 L 147 104.5 L 146.5 106 L 144 105.5 L 145 104.5 L 142.5 101 Z " /><path fill="rgb(187,178,173)" stroke="rgb(187,178,173)" stroke-width="0" opacity="1" d="M 151.5 168 L 155 170.5 L 153 170.5 Q 153.75 173.5 150 172 L 149.5 170 L 148 170.5 Q 147.17 167.88 150.5 169 L 151.5 168 Z " /><path fill="rgb(242,209,182)" stroke="rgb(242,209,182)" stroke-width="0" opacity="0.996078431372549" d="M 180 48 Q 182.67 46.88 182 49.5 L 185 56.5 L 182.5 55 Q 177.69 56.67 179 52.5 L 180 48 Z " /><path fill="rgb(242,209,182)" stroke="rgb(242,209,182)" stroke-width="0" opacity="0.996078431372549" d="M 148 53 L 157 54 L 157 57.5 L 161.5 65 L 162 63.5 L 161 61.5 L 162 61.5 L 164 65.5 L 161 69.5 L 162.5 70 L 165.5 69 L 169.5 70 L 169 68.5 L 172.5 63 L 174 65.5 L 172 67.5 L 171 75.5 L 177.5 79 Q 183 77.44 182 71 L 185 72.5 L 184 76.5 L 185.5 76 L 187 76.5 L 183.5 81 L 182 82.5 L 183 84.5 L 178.5 90 L 165.5 94 L 157.5 94 Q 145.25 90.25 138 81.5 L 143 80.5 Q 138.39 77.61 137 71.5 L 139 71.5 Q 137.33 65.65 141 67 Q 139.75 73.4 144.5 75 L 148.5 74 Q 149.75 76.25 151 73.5 Q 154 71.25 153 66 L 155.5 67 L 156 65.5 L 151.5 60 L 145 59 L 148 53 Z M 156 81 Q 153 82 154 87 L 157 89 L 162 90 L 165 89 L 167 85 Q 163 81 156 81 Z " /><path fill="rgb(242,209,182)" stroke="rgb(242,209,182)" stroke-width="0" opacity="0.996078431372549" d="M 178 57 L 185 58 L 186 65 L 182.5 63 L 177.5 64 L 177.5 63 L 179 62.5 L 176 61.5 L 178 57 Z " /><path fill="rgb(242,209,182)" stroke="rgb(242,209,182)" stroke-width="0" opacity="0.996078431372549" d="M 210.5 64 L 211 74.5 L 210 74.5 L 210.5 64 Z " /><path fill="rgb(242,209,182)" stroke="rgb(242,209,182)" stroke-width="0" opacity="0.996078431372549" d="M 124.5 68 L 125.5 73 L 126.5 71 Q 129.25 72.4 128 77 L 135 79.5 Q 135.87 82.5 131.5 81 L 124 74.5 L 124.5 68 Z " /><path fill="rgb(242,209,182)" stroke="rgb(242,209,182)" stroke-width="0" opacity="0.996078431372549" d="M 139.5 96 Q 144.25 95.25 145 98.5 Q 142.5 100 146 101.5 L 147 103.5 L 144.5 102 L 143 102.5 L 146.5 107 L 145 106.5 L 144.5 108 L 140.5 104 L 139.5 105 Q 134.25 106.5 136 102 L 141 100.5 L 137.5 100 L 136 100.5 L 139.5 96 Z " /><path fill="rgb(242,209,182)" stroke="rgb(242,209,182)" stroke-width="0" opacity="0.996078431372549" d="M 166.5 102 L 169 103 L 170 107.5 L 169 111 Q 165.67 112.31 167 107.5 L 165 104.5 L 166.5 102 Z " /><path fill="rgb(242,209,182)" stroke="rgb(242,209,182)" stroke-width="0" opacity="0.996078431372549" d="M 156 103 L 163 106.5 L 162 107.5 L 164.5 111 L 156 105.5 L 156 103 Z " /><path fill="rgb(242,209,182)" stroke="rgb(242,209,182)" stroke-width="0" opacity="0.996078431372549" d="M 137.5 106 L 144 109.5 L 145 111.5 L 144 114 L 137.5 110 L 133 109.5 L 137.5 106 Z " /><path fill="rgb(242,209,182)" stroke="rgb(242,209,182)" stroke-width="0" opacity="0.996078431372549" d="M 155.5 110 L 156 118.5 L 154 118.5 L 155 121.5 L 149.5 131 L 148 130.5 L 151 128.5 L 150 127.5 L 150 119.5 L 152 118.5 L 153.5 122 L 154 120.5 L 152 115.5 L 155.5 110 Z " /><path fill="rgb(242,209,182)" stroke="rgb(242,209,182)" stroke-width="0" opacity="0.996078431372549" d="M 121 111 Q 125.6 109.75 127 112.5 L 120.5 115 L 119.5 113 L 121 113.5 L 121 111 Z " /><path fill="rgb(242,209,182)" stroke="rgb(242,209,182)" stroke-width="0" opacity="0.996078431372549" d="M 125.5 123 Q 128.25 124.25 126 125.5 L 125 128.5 Q 127.75 130.25 123.5 132 L 123.5 130 Q 120.5 130.87 122 126.5 L 121.5 125 L 122.5 126 L 125.5 123 Z " /><path fill="rgb(242,209,182)" stroke="rgb(242,209,182)" stroke-width="0" opacity="0.996078431372549" d="M 170.5 128 L 172 129.5 L 173 131.5 L 168.5 135 L 158.5 136 L 153 134 L 155.5 130 Q 165.83 131.83 170.5 128 Z " /><path fill="rgb(242,209,182)" stroke="rgb(242,209,182)" stroke-width="0" opacity="0.996078431372549" d="M 148.5 132 L 141.5 140 L 130 150.5 L 128.5 153 L 128 150 L 130 149.5 L 129 146.5 L 133.5 139 L 136.5 138 L 137 140 Q 139.67 141.13 139 138.5 L 141.5 134 L 142.5 138 L 148.5 132 Z " /><path fill="rgb(242,209,182)" stroke="rgb(242,209,182)" stroke-width="0" opacity="0.996078431372549" d="M 171.5 148 Q 176 147 177 149.5 L 177 153 L 168.5 153 L 164 155 L 165.5 151 L 171.5 148 Z " /><path fill="rgb(242,209,182)" stroke="rgb(242,209,182)" stroke-width="0" opacity="0.996078431372549" d="M 144.5 153 Q 147.67 156.83 155.5 156 L 159 155 Q 160.25 160.5 156.5 162 L 148.5 163 L 143 158.5 Q 142 154 144.5 153 Z " /><path fill="rgb(242,209,182)" stroke="rgb(242,209,182)" stroke-width="0" opacity="0.996078431372549" d="M 167.5 159 Q 176.53 157.47 179 162.5 L 173.5 177 L 168.5 178 L 163 174.5 Q 161.21 164.21 165.5 160 L 167.5 159 Z " /><path fill="rgb(187,200,76)" stroke="rgb(187,200,76)" stroke-width="0" opacity="0.996078431372549" d="M 144.5 69 L 147.5 71 Q 149.25 67.25 151 70.5 L 148.5 74 Q 143.75 74.75 143 71.5 L 144.5 69 Z " /><path fill="rgb(187,200,76)" stroke="rgb(187,200,76)" stroke-width="0" opacity="0.996078431372549" d="M 173.5 73 L 176.5 75 L 180 74.5 L 177.5 78 Q 171.65 80.08 173 75.5 Q 170.75 74.25 173.5 73 Z " /><path fill="rgb(184,134,99)" stroke="rgb(184,134,99)" stroke-width="0" opacity="0.996078431372549" d="M 145 8 L 148 9.5 L 140 13 L 138 17.5 L 139.5 18 L 141.5 18 L 143.5 17 L 140 21.5 L 139 24.5 L 141 25.5 Q 138.75 26.75 141.5 28 L 144 28.5 L 139.5 36 L 139 33 Q 135.67 34.31 137 29.5 L 138 27.5 L 135 28.5 L 134.5 27 L 128.5 34 L 130 31.5 L 131 28.5 L 139 20.5 L 137.5 20 L 131 25.5 L 133 19.5 L 131.5 19 L 123.5 26 L 123 24.5 L 131.5 15 L 131.5 17 L 134.5 15 L 134.5 13 L 136 13.5 L 136.5 12 L 137.5 14 L 138.5 11 L 139.5 13 L 140.5 10 L 141.5 12 L 142 9 L 144.5 10 L 145 8 Z " /><path fill="rgb(184,134,99)" stroke="rgb(184,134,99)" stroke-width="0" opacity="0.996078431372549" d="M 120.5 28 L 122 28.5 L 117.5 34 L 117.5 31 L 119 30.5 L 118.5 29 L 120.5 28 Z " /><path fill="rgb(184,134,99)" stroke="rgb(184,134,99)" stroke-width="0" opacity="0.996078431372549" d="M 146 31 L 148 31.5 L 147 33.5 Q 148.75 31.92 150.5 35 L 153 35.5 L 150.5 39 Q 144.42 40.25 145 37.5 L 146 35.5 L 143 36.5 L 146 31 Z " /><path fill="rgb(184,134,99)" stroke="rgb(184,134,99)" stroke-width="0" opacity="0.996078431372549" d="M 158.5 35 Q 162.75 36.75 160 38.5 L 161 41.5 L 159.5 41 L 158 39.5 L 158 37.5 L 158.5 35 Z " /><path fill="rgb(184,134,99)" stroke="rgb(184,134,99)" stroke-width="0" opacity="0.996078431372549" d="M 162.5 36 L 163 38 L 166.5 39 L 170 38 Q 170.75 42.67 166.5 44 L 162 41.5 L 162.5 36 Z " /><path fill="rgb(184,134,99)" stroke="rgb(184,134,99)" stroke-width="0" opacity="0.996078431372549" d="M 154.5 43 L 156 47.5 L 155 47.5 L 154.5 46 L 151 48.5 L 154.5 43 Z " /><path fill="rgb(184,134,99)" stroke="rgb(184,134,99)" stroke-width="0" opacity="0.996078431372549" d="M 141.5 57 L 142 58.5 L 137 62.5 L 136.5 64 L 136 62.5 L 140 60 L 141.5 57 Z " /><path fill="rgb(184,134,99)" stroke="rgb(184,134,99)" stroke-width="0" opacity="0.996078431372549" d="M 174.5 59 L 175 60.5 L 174 63.5 L 175 63.5 Q 174.17 60.88 177.5 62 L 177.5 63 L 174.5 65 Q 170.25 63.25 173 61.5 L 174.5 59 Z " /><path fill="rgb(184,134,99)" stroke="rgb(184,134,99)" stroke-width="0" opacity="0.996078431372549" d="M 171.5 64 L 168.5 69 L 170 69.5 L 168.5 70 L 164 68.5 Q 170 68.5 171.5 64 Z " /><path fill="rgb(184,134,99)" stroke="rgb(184,134,99)" stroke-width="0" opacity="0.996078431372549" d="M 159.5 82 L 163 82.5 L 162.5 84 L 164 85.5 L 164 87.5 L 162.5 89 L 160.5 89 Q 156 90 155 87.5 L 154 84.5 L 159.5 82 Z " /><path fill="rgb(184,134,99)" stroke="rgb(184,134,99)" stroke-width="0" opacity="0.996078431372549" d="M 146 91 L 149 92.5 L 150.5 94 L 153.5 92 L 153.5 94 L 155.5 93 L 155.5 95 L 161.5 98 Q 162.75 95.75 164 98.5 L 164 100.5 Q 164.5 103.5 157.5 102 Q 154.25 103.86 156 110 L 159 109.5 L 158.5 108 L 160.5 112 L 164 113 L 165 115.5 L 158 117 L 157.5 112 L 156.5 118 L 156 110 Q 152.67 111.31 154 106.5 L 155 103.5 L 153 100.5 L 154.5 101 L 156 100.5 L 155 98 L 152.5 97 L 146.5 102 L 146 100 Q 150.67 100.75 152 96.5 L 145 93.5 L 146 91 Z " /><path fill="rgb(184,134,99)" stroke="rgb(184,134,99)" stroke-width="0" opacity="0.996078431372549" d="M 167.5 93 L 173 96.5 L 171 97 L 170 100.5 L 174 102 L 176 106.5 L 172.5 104 L 171 102.5 L 168 100.5 L 170 103.5 L 168.5 103 L 166.5 102 L 165 102.5 Q 163.5 98.12 166.5 99 L 168 99.5 L 165 95.5 L 167 95 L 167.5 97 L 169 94.5 L 167.5 93 Z " /><path fill="rgb(184,134,99)" stroke="rgb(184,134,99)" stroke-width="0" opacity="0.996078431372549" d="M 176.5 96 L 183 100.5 L 182.5 102 L 186 103.5 L 186.5 105 L 188 104.5 L 186.5 106 L 181 105 L 176.5 96 Z " /><path fill="rgb(184,134,99)" stroke="rgb(184,134,99)" stroke-width="0" opacity="0.996078431372549" d="M 135 99 L 137 99.5 L 136.5 101 L 138.5 100 L 137.5 102 L 133 104.5 L 130.5 110 L 131 108.5 L 134.5 102 L 136 101.5 L 135 99 Z " /><path fill="rgb(184,134,99)" stroke="rgb(184,134,99)" stroke-width="0" opacity="0.996078431372549" d="M 147.5 103 L 148 112.5 L 146 111.5 L 145.5 110 L 144 110.5 L 146 107.5 L 145.5 106 L 147 106.5 L 147.5 103 Z " /><path fill="rgb(184,134,99)" stroke="rgb(184,134,99)" stroke-width="0" opacity="0.996078431372549" d="M 189.5 105 L 193 106.5 L 192 108.5 Q 194 106.83 196 110.5 L 197.5 112 L 197.5 113 L 196 113.5 L 198 119.5 L 194.5 121 L 192 120.5 L 194 116.5 L 193.5 115 L 195 115.5 L 196 112.5 L 192.5 111 Q 191.25 113.25 190 110.5 L 188 107.5 L 191 106.5 L 189.5 105 Z " /><path fill="rgb(184,134,99)" stroke="rgb(184,134,99)" stroke-width="0" opacity="0.996078431372549" d="M 183.5 111 L 185 115 Q 182.33 113.88 183 116.5 L 182 116.5 L 180 112.5 L 182 112 Q 181 115 184 114 L 183.5 111 Z " /><path fill="rgb(184,134,99)" stroke="rgb(184,134,99)" stroke-width="0" opacity="0.996078431372549" d="M 180.5 117 L 182 123.5 Q 188.49 128.01 191 136.5 L 189.5 140 L 186 135.5 L 188 135.5 Q 189 131 186.5 130 L 185.5 134 L 185 131 Q 182.33 132.13 183 129.5 Q 178.68 124.98 180.5 117 Z " /><path fill="rgb(184,134,99)" stroke="rgb(184,134,99)" stroke-width="0" opacity="0.996078431372549" d="M 149.5 120 L 150 123.5 L 147 133.5 L 148 134.5 L 144.5 138 L 142 137.5 L 143 135.5 Q 141.5 132.5 140 135.5 L 138.5 139 L 137 138.5 L 137.5 137 L 132.5 140 L 134 137.5 L 132.5 136 L 128 135 L 128.5 131 L 129 134 Q 131.67 135.13 131 132.5 L 132 132.5 L 132.5 135 L 134 134.5 L 134.5 136 L 138 134.5 L 137.5 133 L 139 132.5 L 137 128.5 Q 137.67 125.88 135 127 L 136 133.5 L 134 132.5 L 133.5 129 L 132.5 131 L 132 126.5 L 133 126.5 L 133.5 128 L 136.5 126 L 138.5 129 L 140.5 128 L 143.5 130 L 144.5 128 L 142 126.5 L 144.5 126 L 146 127.5 L 147 127.5 L 149.5 120 Z " /><path fill="rgb(184,134,99)" stroke="rgb(184,134,99)" stroke-width="0" opacity="0.996078431372549" d="M 94 123 L 98 124.5 L 95 126.5 L 98 127.5 L 94 130.5 L 92 125 Q 95 126 94 123 Z " /><path fill="rgb(184,134,99)" stroke="rgb(184,134,99)" stroke-width="0" opacity="0.996078431372549" d="M 105.5 123 Q 110.9 121.13 110 124.5 L 107.5 128 L 105 126.5 L 108 125.5 L 105.5 123 Z " /><path fill="rgb(184,134,99)" stroke="rgb(184,134,99)" stroke-width="0" opacity="0.996078431372549" d="M 151.5 129 L 166 129.5 L 155.5 130 L 153 132.5 L 154 134.5 L 151 132.5 L 152 130.5 L 151.5 129 Z " /><path fill="rgb(184,134,99)" stroke="rgb(184,134,99)" stroke-width="0" opacity="0.996078431372549" d="M 128.5 136 L 131 136.5 L 130 138.5 L 130.5 140 Q 125.5 138.62 128 145.5 L 127 145.5 L 126.5 144 L 125.5 147 Q 124.25 144.75 123 147.5 Q 125.25 148.75 122.5 150 L 121 149.5 Q 123.5 148 120 146.5 L 121 141 L 127.5 137 L 128.5 136 Z " /><path fill="rgb(184,134,99)" stroke="rgb(184,134,99)" stroke-width="0" opacity="0.996078431372549" d="M 126.5 148 L 127 149.5 L 123 156.5 L 126 155.5 L 124 159.5 L 126 159.5 L 124 169.5 L 124 178.5 L 125 178.5 L 125.5 177 L 126 178.5 L 125 183 Q 127.67 181.88 127 184.5 Q 123.92 186.25 125.5 188 L 122 186.5 L 120 183.5 L 119.5 166 L 116.5 172 L 116 170.5 L 117 167.5 L 116.5 166 L 118 166.5 L 117 164.5 L 119 164.5 L 120 161 Q 115.13 162.6 117 157 L 119 156.5 L 118.5 155 L 126.5 148 Z " /><path fill="rgb(184,134,99)" stroke="rgb(184,134,99)" stroke-width="0" opacity="0.996078431372549" d="M 158.5 165 L 157.5 167 L 156 167.5 L 158 168.5 L 157 171 L 147.5 177 L 142 172.5 Q 140.75 166.42 143.5 167 L 147.5 167 L 149 167.5 L 147 168.5 L 148.5 171 L 150 170.5 Q 149.25 173.5 153 172 L 154.5 169 L 156 169.5 L 154.5 168 L 154.5 167 L 158.5 165 Z " /><path fill="rgb(184,134,99)" stroke="rgb(184,134,99)" stroke-width="0" opacity="0.996078431372549" d="M 177 166 L 179 166.5 L 176 172.5 L 176.5 174 L 175 171.5 L 177 166 Z " /><path fill="rgb(184,134,99)" stroke="rgb(184,134,99)" stroke-width="0" opacity="0.996078431372549" d="M 117.5 175 L 118 177.5 Q 119.5 181.87 116.5 181 L 114.5 182 L 114.5 181 L 116 180.5 L 115 176 L 117.5 175 Z " /><path fill="rgb(184,134,99)" stroke="rgb(184,134,99)" stroke-width="0" opacity="0.996078431372549" d="M 117.5 185 L 118.5 188 L 121 187 Q 119.75 190 123.5 189 Q 126.5 190.5 123.5 192 L 121.5 193 L 120.5 190 L 119 190.5 L 120 188.5 L 117.5 188 L 115.5 189 L 115.5 186 L 117.5 185 Z " /><path fill="rgb(200,90,52)" stroke="rgb(200,90,52)" stroke-width="0" opacity="0.996078431372549" d="M 174.5 4 L 180 4.5 L 169 10.5 L 167.5 13 L 167 10.5 L 167 8.5 L 169.5 6 L 174.5 4 Z " /><path fill="rgb(200,90,52)" stroke="rgb(200,90,52)" stroke-width="0" opacity="0.996078431372549" d="M 152.5 7 Q 160.62 6.37 165 9.5 L 163 10.5 L 164.5 13 L 160.5 11 L 163.5 15 L 165.5 16 L 169 15.5 L 169.5 17 L 171 14.5 L 170 12 L 177.5 10 L 177.5 12 L 186 16.5 L 185 19 L 188 18.5 L 187.5 17 L 190.5 23 L 188.5 22 L 190 24.5 L 191.5 28 L 193 27.5 L 192 31.5 L 193 35 Q 195.67 33.88 195 36.5 L 198 42.5 Q 197.13 51.09 200 55 L 197 56.5 L 197 62.5 L 193 70.5 L 193 74 L 190 75.5 L 188 79.5 L 189 82 L 184.5 83 L 184.5 82 L 188 80.5 L 186 79.5 Q 195.39 70.39 193 49.5 L 190.5 46 L 190 48.5 Q 192.78 53.72 192 62.5 L 190 69 L 188 68.5 L 190 61.5 L 188 62.5 L 186.5 66 L 185 57.5 L 185 55.5 L 182 47.5 L 182.5 46 L 181 45.5 L 181 43.5 L 179.5 38 L 179 43.5 L 180 48.5 L 178 55.5 L 179.5 55 L 182 56.5 L 180.5 57 L 177 56.5 Q 177.58 63.08 173.5 65 L 174 63.5 L 175 59.5 L 173 60.5 L 168 67.5 L 168.5 69 L 164.5 68 L 163 68.5 L 164 64.5 L 160.5 57 L 159.5 61 L 156 53.5 L 157 51.5 L 155 43 L 153 43.5 Q 155.5 45 152 46.5 L 149.5 51 L 148 51.5 L 149 52.5 L 144 57.5 L 142.5 60 L 141 59.5 L 142 57 L 140 57 Q 141.5 60.75 138.5 60 L 138.5 62 L 136 56.5 L 137 49.5 L 136 49.5 L 135 62.5 L 135 66.5 L 136.5 68 L 136 69.5 L 141 80.5 L 139.5 80 L 132 78 L 133 75.5 L 128 73.5 Q 122.79 67.21 123.5 55 Q 119.07 60.07 119.5 70 L 118 68.5 L 117.5 62 Q 114.8 65.8 116 73.5 L 117.5 77 L 118.5 74 L 120 79.5 L 118 79.5 Q 119.33 84.31 116 83 Q 117.13 80.33 114.5 81 L 111.5 75 L 111 77.5 L 112 79.5 L 109.5 78 L 107.5 79 L 108 77.5 L 107.5 74 L 106 74.5 Q 105.37 66.38 108.5 62 L 109 64 L 111 63.5 L 108.5 60 L 105.5 64 L 103 65.5 L 102.5 67 L 102 65.5 L 105 59.5 Q 101.25 57.75 104.5 56 L 106.5 56 Q 109.83 57.13 109 54.5 L 111 54.5 L 110 50.5 L 112 44 Q 114.67 45.13 114 42.5 L 116 39.5 L 114.5 39 L 105.5 49 L 106 47.5 L 110.5 41 L 112 40.5 Q 109.75 39.25 112.5 38 L 116 36 L 116 33.5 L 120 31.5 L 122 27.5 L 119 28.5 L 129.5 17 L 123 24.5 L 123.5 26 L 132.5 19 L 132 20.5 L 132.5 25 L 140 18.5 L 138 17.5 L 140 13 L 148 9.5 L 147.5 8 L 152.5 7 Z M 160 16 L 148 26 L 149 27 Q 153 22 161 20 Q 167 21 166 19 Q 165 15 160 16 Z M 174 17 L 169 20 L 171 20 L 173 20 L 179 23 L 187 31 L 182 23 L 174 17 Z M 142 18 L 131 30 L 136 26 L 135 28 L 136 29 L 143 19 L 142 18 Z M 139 25 L 137 30 Q 136 34 139 33 L 140 36 L 144 29 L 142 28 Q 139 27 141 26 L 139 25 Z M 149 33 L 145 38 Q 144 40 151 39 L 153 36 L 149 33 Z M 159 35 L 158 38 L 158 40 L 160 41 L 161 42 L 160 39 Q 163 37 159 35 Z M 163 36 L 162 42 L 167 44 Q 171 43 170 38 L 167 39 L 163 38 L 163 36 Z " /><path fill="rgb(200,90,52)" stroke="rgb(200,90,52)" stroke-width="0" opacity="0.996078431372549" d="M 202.5 41 L 206 43.5 Q 203.75 44.75 206.5 46 L 214 51 L 213 53.5 L 217 64 Q 214 65.25 215 61.5 L 205 47.5 Q 207.25 46.25 204.5 45 Q 201.88 45.83 203 42.5 L 202.5 41 Z " /><path fill="rgb(200,90,52)" stroke="rgb(200,90,52)" stroke-width="0" opacity="0.996078431372549" d="M 207.5 59 L 210 66.5 L 209 68.5 L 210 70.5 L 209 72.5 L 210 75 L 206 73.5 L 208 73.5 L 207 67.5 L 208 63.5 L 207.5 59 Z " /><path fill="rgb(200,90,52)" stroke="rgb(200,90,52)" stroke-width="0" opacity="0.996078431372549" d="M 109.5 83 L 108.5 85 L 105 86 L 104 90.5 L 104.5 92 L 103 88.5 L 105.5 85 L 109.5 83 Z " /><path fill="rgb(200,90,52)" stroke="rgb(200,90,52)" stroke-width="0" opacity="0.996078431372549" d="M 110.5 85 L 115 87.5 Q 116.31 95.81 111.5 98 L 110.5 96 L 110 98 Q 107 99.25 108 95.5 Q 104.5 94 107 92.5 L 108 86 L 110.5 85 Z " /><path fill="rgb(200,90,52)" stroke="rgb(200,90,52)" stroke-width="0" opacity="0.996078431372549" d="M 125.5 87 L 131 89.5 L 128.5 93 L 130 93.5 L 126.5 94 L 125 93.5 Q 125.83 96.13 122.5 95 L 118 93 L 119.5 90 L 125.5 87 Z " /><path fill="rgb(200,90,52)" stroke="rgb(200,90,52)" stroke-width="0" opacity="0.996078431372549" d="M 151.5 92 L 160.5 95 L 162 94.5 L 161.5 96 L 163 96.5 L 160.5 98 L 151.5 93 L 151.5 92 Z " /><path fill="rgb(200,90,52)" stroke="rgb(200,90,52)" stroke-width="0" opacity="0.996078431372549" d="M 104.5 94 L 106 96.5 L 105.5 98 Q 108.88 97.1 107 102.5 L 105 107.5 L 106.5 107 L 111.5 105 Q 116.5 107.5 111.5 110 L 106.5 112 L 104 110.5 L 105 108.5 L 103.5 109 Q 99.75 110.25 101 106.5 L 100 100.5 L 102 97.5 L 100.5 97 L 98 98.5 L 102.5 95 L 104.5 96 L 104.5 94 Z " /><path fill="rgb(200,90,52)" stroke="rgb(200,90,52)" stroke-width="0" opacity="0.996078431372549" d="M 115.5 97 L 122 98.5 L 121 101 L 113.5 104 L 111 103.5 L 110.5 102 L 109 102.5 L 111.5 99 L 115.5 97 Z " /><path fill="rgb(200,90,52)" stroke="rgb(200,90,52)" stroke-width="0" opacity="0.996078431372549" d="M 158.5 102 L 163.5 106 L 164.5 102 L 166 106.5 L 164 106.5 L 165 109.5 L 163 108.5 L 161.5 105 L 158.5 102 Z " /><path fill="rgb(200,90,52)" stroke="rgb(200,90,52)" stroke-width="0" opacity="0.996078431372549" d="M 98.5 109 Q 102.5 110.71 101 117 L 106.5 114 L 110 116.5 L 108 116.5 L 106.5 119 L 103.5 121 L 103 119 Q 99.25 117.5 100 120.5 L 97 118.5 L 96.5 117 L 94 118 L 94.5 116 L 96 116.5 L 95 111.5 L 98.5 109 Z " /><path fill="rgb(200,90,52)" stroke="rgb(200,90,52)" stroke-width="0" opacity="0.996078431372549" d="M 177.5 123 Q 181.87 121.5 181 124.5 L 180 126.5 L 181 128.5 L 178 126.5 L 176.5 125 L 177.5 123 Z " /><path fill="rgb(200,90,52)" stroke="rgb(200,90,52)" stroke-width="0" opacity="0.996078431372549" d="M 101.5 129 Q 103.25 132.08 105 130.5 L 106.5 133 L 109.5 134 L 111.5 133 L 114 133.5 L 109 135.5 L 114 137.5 Q 112.75 140.25 111.5 138 L 110 138.5 L 110.5 140 L 105.5 139 L 106.5 141 L 109 142.5 L 108.5 144 Q 105.09 139.09 98 139 L 97.5 135 Q 98.37 140.37 95.5 142 L 94 135.5 L 98 133 L 98 131 Q 101.79 132.33 101.5 129 Z " /><path fill="rgb(200,90,52)" stroke="rgb(200,90,52)" stroke-width="0" opacity="0.996078431372549" d="M 152 143 L 156.5 144 L 159.5 143 L 162 144.5 L 160 145 Q 161.13 147.67 158.5 147 L 152 145 L 152 143 Z " /><path fill="rgb(200,90,52)" stroke="rgb(200,90,52)" stroke-width="0" opacity="0.996078431372549" d="M 126.5 144 L 128 148.5 L 127 148.5 L 126.5 147 L 125.5 149 L 124.5 147 L 123 147.5 L 126 146.5 L 126.5 144 Z " /><path fill="rgb(200,90,52)" stroke="rgb(200,90,52)" stroke-width="0" opacity="0.996078431372549" d="M 150.5 146 L 153.5 147 L 156 147.5 L 154 148 Q 155.31 151.33 150.5 150 L 149 147.5 L 150.5 146 Z " /><path fill="rgb(200,90,52)" stroke="rgb(200,90,52)" stroke-width="0" opacity="0.996078431372549" d="M 148.5 151 L 157 152.5 L 155.5 154 L 148.5 155 L 147 152.5 L 148.5 151 Z " /><path fill="rgb(200,90,52)" stroke="rgb(200,90,52)" stroke-width="0" opacity="0.996078431372549" d="M 118.5 179 Q 121.88 178.1 120 183.5 L 121.5 186 L 119.5 187 L 118.5 182 L 116.5 183 L 117.5 181 L 119 180.5 L 118.5 179 Z " /><path fill="rgb(200,90,52)" stroke="rgb(200,90,52)" stroke-width="0" opacity="0.996078431372549" d="M 123.5 188 L 125.5 188 L 128 190.5 L 126 190.5 L 127 192.5 Q 125.5 195.5 124 192.5 L 125 190.5 L 123.5 188 Z " /><path fill="rgb(253,253,253)" stroke="rgb(253,253,253)" stroke-width="0" opacity="0" d="M 0 0 L 320 0 L 320 213 L 0 213 L 0 0 Z M 176 3 Q 169 4 167 8 L 161 6 L 152 6 L 144 8 L 130 16 L 108 42 Q 103 47 103 56 L 100 55 L 96 48 L 95 54 Q 98 59 104 59 L 99 72 L 100 75 L 109 82 Q 110 84 107 83 L 102 89 L 104 94 L 101 95 L 95 103 Q 94 107 97 108 L 93 114 L 95 123 Q 91 122 90 126 L 94 134 L 93 136 L 94 142 L 100 145 Q 103 146 102 144 L 104 144 Q 108 142 107 146 L 107 148 L 109 149 L 111 146 Q 110 139 113 140 L 116 136 L 115 129 Q 112 128 113 132 L 111 132 Q 109 134 108 132 L 111 131 L 113 122 L 109 121 Q 113 119 112 113 L 116 111 L 117 110 L 120 107 L 126 106 Q 130 104 131 97 L 135 98 L 131 105 L 131 108 L 127 110 L 125 109 L 121 110 Q 118 109 119 114 L 125 116 Q 124 123 120 128 L 120 131 L 124 132 L 126 129 L 128 128 L 127 130 Q 126 135 129 136 L 120 142 Q 118 148 121 150 L 117 157 L 117 165 L 113 173 Q 111 181 115 184 L 114 188 L 118 191 L 119 190 L 119 192 L 122 193 L 126 195 L 130 194 L 128 190 L 126 175 L 130 172 Q 138 167 137 153 L 140 152 L 142 162 L 136 172 L 137 191 L 142 196 Q 149 197 150 193 Q 149 185 152 186 L 152 182 L 156 177 L 156 173 L 160 165 L 162 155 L 162 170 L 162 172 Q 158 174 157 181 L 158 186 L 155 204 L 162 208 L 168 207 L 171 204 L 174 191 Q 173 187 176 188 L 178 185 Q 176 178 179 177 L 177 174 L 182 162 L 184 153 L 184 156 L 189 158 L 192 157 L 193 154 L 195 154 L 199 153 L 208 142 Q 204 136 203 128 L 196 122 L 198 121 L 199 119 L 198 112 L 194 109 L 193 106 L 183 100 L 180 96 L 182 97 Q 185 96 184 99 L 190 98 Q 194 95 194 89 L 199 90 L 197 95 L 199 95 L 202 90 L 206 88 L 206 86 L 202 87 L 202 82 L 204 81 L 205 79 L 207 78 L 206 82 L 203 83 Q 202 86 205 85 Q 210 82 211 75 Q 212 64 209 59 L 210 57 L 216 67 Q 217 73 213 75 L 216 75 L 219 70 Q 219 60 215 55 L 217 55 L 222 54 L 223 50 Q 220 49 221 52 L 217 52 L 215 51 L 214 43 L 209 35 L 198 25 L 194 21 Q 187 12 174 9 L 178 7 L 185 7 L 196 11 L 202 20 Q 203 24 200 25 L 202 26 Q 206 25 205 18 Q 196 4 176 3 Z " /><path fill="rgb(253,253,253)" stroke="rgb(253,253,253)" stroke-width="0" opacity="0" d="M 202.5 33 L 207 36 L 212 43.5 L 212 48.5 L 208 45.5 Q 203.16 40.55 202.5 33 Z " /><path fill="rgb(253,253,253)" stroke="rgb(253,253,253)" stroke-width="0" opacity="0" d="M 111.5 43 L 111 44.5 L 109.5 48 L 108 48.5 Q 111.5 50 109 51.5 Q 110.67 56.31 106.5 55 L 105 55.5 Q 105.25 46.25 111.5 43 Z " /><path fill="rgb(253,253,253)" stroke="rgb(253,253,253)" stroke-width="0" opacity="0" d="M 105.5 65 L 106 67.5 L 105 74.5 L 105.5 76 Q 101.96 74.04 103 67.5 L 105.5 65 Z " /><path fill="rgb(253,253,253)" stroke="rgb(253,253,253)" stroke-width="0" opacity="0" d="M 204 70 Q 207 68.75 206 72.5 L 202.5 79 L 202 76.5 L 204 70 Z " /></svg>