<svg role="img" aria-label="moon-sprout" viewBox="0 0 320 213" version="1.1" xmlns="http://www.w3.org/2000/svg" desc="Created with imagetracer.js version 1.2.6" ><path fill="rgb(231,194,95)" stroke="rgb(231,194,95)" stroke-width="0" opacity="0.996078431372549" d="M 167.5 7 Q 170.13 6.33 169 9 L 165.5 9 L 157 14.5 L 152.5 22 L 152 20.5 L 159.5 11 L 167.5 7 Z " /><path fill="rgb(231,194,95)" stroke="rgb(231,194,95)" stroke-width="0" opacity="0.996078431372549" d="M 130.5 32 L 133.5 46 L 134.5 45 L 138.5 47 L 146.5 48 L 148.5 48 L 154.5 52 L 164.5 55 Q 166.2 52.2 171.5 53 L 180 47.5 L 179.5 46 L 181 46.5 L 182.5 44 L 184 45.5 Q 180.92 47.25 182.5 49 L 181 49.5 L 181.5 51 L 178.5 54 L 172 59 L 171.5 61 L 169.5 61 Q 166.17 59.87 167 62.5 L 165.5 62 L 163 61.5 L 163.5 60 L 160 60 Q 161.13 57.33 158.5 58 L 152 60.5 L 152.5 62 Q 142.78 59.72 137 53.5 Q 129.24 46.06 130.5 32 Z " /><path fill="rgb(231,194,95)" stroke="rgb(231,194,95)" stroke-width="0" opacity="0.996078431372549" d="M 153.5 38 L 159 44.5 L 154 40.5 L 153.5 38 Z " /><path fill="rgb(231,194,95)" stroke="rgb(231,194,95)" stroke-width="0" opacity="0.996078431372549" d="M 164.5 47 L 175 48.5 L 166.5 49 L 164.5 47 Z " /><path fill="rgb(231,194,95)" stroke="rgb(231,194,95)" stroke-width="0" opacity="0.996078431372549" d="M 154.5 62 L 158.5 69 L 162 68 L 163 72 L 166 73.5 L 165.5 75 Q 169.25 74 168 77 L 171.5 77 L 175 79.5 L 173.5 79 L 163.5 77 L 162 77.5 L 161 74 Q 158 73 159 76 L 155 76 L 154.5 74 L 147.5 79 L 148.5 77 L 154 73.5 L 155.5 67 L 156.5 72 L 157 66.5 L 155.5 64 L 154.5 66 L 153 63.5 L 154.5 62 Z " /><path fill="rgb(231,194,95)" stroke="rgb(231,194,95)" stroke-width="0" opacity="0.996078431372549" d="M 120 64 Q 131.41 63.74 137 70.5 L 140 75.5 L 138 80.5 L 141 82.5 L 139.5 82 L 138 83.5 L 140 86.5 L 135.5 88 L 135.5 86 L 133.5 87 Q 126.55 85.45 123 80.5 Q 118.77 74.42 120 64 Z M 130 67 L 128 69 L 129 73 L 132 75 L 137 76 L 137 75 L 137 73 L 130 67 Z " /><path fill="rgb(231,194,95)" stroke="rgb(231,194,95)" stroke-width="0" opacity="0.996078431372549" d="M 197.5 65 Q 202.75 63.75 204 66.5 L 202 78 L 200 78.5 Q 202.5 80 199 81.5 L 196.5 85 L 188.5 88 L 184.5 87 L 182 88 L 183 83.5 L 181 78.5 L 182.5 75 L 183.5 77 L 187 76 L 187.5 78 L 192 75 L 194 70.5 L 191.5 67 L 197.5 65 Z M 200 68 L 198 69 L 194 75 L 197 75 L 201 72 L 200 68 Z " /><path fill="rgb(231,194,95)" stroke="rgb(231,194,95)" stroke-width="0" opacity="0.996078431372549" d="M 159.5 89 L 164 95.5 L 160.5 96 L 161 94.5 L 159.5 89 Z " /><path fill="rgb(231,194,95)" stroke="rgb(231,194,95)" stroke-width="0" opacity="0.996078431372549" d="M 163.5 97 L 165.5 98 L 167.5 97 L 166.5 99 L 162 101.5 L 159.5 106 L 158 103.5 L 160 103.5 Q 157.5 96.63 162.5 98 L 163.5 97 Z " /><path fill="rgb(231,194,95)" stroke="rgb(231,194,95)" stroke-width="0" opacity="0.996078431372549" d="M 233.5 107 Q 238.75 105.75 240 108.5 L 239 112.5 L 240 119.5 Q 237.79 137.79 226.5 147 L 225 148.5 L 216 153.5 L 219 155.5 L 223 164.5 L 222 164.5 L 218.5 157 L 218 159 L 215 159.5 L 216 165 L 213 165.5 L 213 167.5 L 209 173.5 L 213 175.5 L 211.5 176 L 204 170.5 L 203.5 166 L 203 171 Q 200 170 201 173 L 196 173 L 195 169.5 L 196.5 170 L 200.5 171 L 202 166.5 L 201 164.5 L 202 164.5 L 202.5 166 L 205 165 L 203.5 160 L 202 159.5 L 203.5 159 L 208 160 L 206.5 157 L 205 157.5 L 207.5 156 L 209 156.5 L 209 155 L 204 155 L 204 153.5 L 203 150.5 L 205 147.5 L 203.5 148 L 202 146.5 L 205 144.5 L 204.5 146 Q 209.31 147.67 208 143.5 L 210.5 140 L 206.5 141 L 205 138.5 L 206 138.5 L 206.5 140 L 212 136.5 L 211 135.5 L 214.5 130 Q 215.75 132.25 217 129.5 L 216 127 L 218 126.5 L 217.5 125 L 219 125.5 L 218 123.5 L 221 121.5 L 220.5 120 L 223 118.5 L 222 117.5 L 227.5 112 L 229 112.5 L 230.5 110 L 232 109.5 L 229.5 109 Q 227.75 112.08 226 110.5 Q 226.87 113.5 222.5 112 L 214 119.5 Q 211.17 122.17 212 128.5 L 214 128.5 L 208.5 135 Q 205.25 138 199 137 L 198.5 135 L 196.5 136 L 196.5 135 L 198 133.5 Q 201.82 123.82 209.5 118 Q 217.71 110.21 231.5 108 L 234.5 109 L 234.5 108 L 233.5 107 Z M 237 126 Q 235 129 234 127 L 229 129 Q 226 130 228 132 L 227 131 L 225 133 L 226 134 Q 222 133 223 136 Q 227 135 229 138 L 234 136 L 237 129 L 237 126 Z " /><path fill="rgb(231,194,95)" stroke="rgb(231,194,95)" stroke-width="0" opacity="0.996078431372549" d="M 84.5 108 L 88 109.5 L 88.5 111 L 90.5 110 L 92.5 113 Q 93.75 110.75 95 113.5 L 94.5 115 L 100 118.5 L 99.5 120 L 102 121.5 L 101 123.5 L 103 123.5 L 102 125.5 L 104 125.5 L 105 127.5 L 105 129.5 L 106.5 132 L 109 131.5 L 108 126 L 110.5 127 L 111 123 L 107 121.5 Q 106.21 115.29 102 112.5 L 103.5 113 Q 113.58 116.92 119 125.5 L 123 132.5 Q 120.5 134 124 135.5 Q 124.67 138.13 122 137 L 122 139.5 L 123 142 Q 120.33 140.88 121 143.5 L 119 142.5 L 121 141.5 L 119 140.5 L 121 140 L 119.5 136 L 115.5 136 L 109.5 132 L 113.5 139 Q 116.13 138.17 115 141.5 L 114 141.5 L 112.5 140 L 111 139.5 L 114.5 145 L 116.5 144 L 117 148.5 L 118 153.5 L 112 154.5 L 114.5 156 L 116 155.5 L 114 159.5 L 116 159.5 L 115 169.5 L 117 168.5 L 116 165.5 L 117 165.5 Q 115.88 168.83 118.5 168 L 118.5 170 L 123.5 169 L 124 170.5 Q 121.75 175.25 119.5 171 L 116.5 170 L 116 172 L 112.5 174 L 105.5 177 L 105.5 176 L 110 175 L 108.5 164 L 104 166 Q 103 163 106 164 L 106 160 L 102.5 159 L 100.5 164 L 100 161.5 L 105.5 154 L 108 153.5 Q 97.76 150.74 92 143.5 L 87 134.5 L 88 134.5 L 93.5 143 L 94 141 L 98 140.5 L 96 136.5 L 99.5 134 L 101.5 137 L 103 134.5 L 94 128.5 L 93.5 127 L 88.5 130 L 86 128.5 L 87 132.5 L 86 132.5 Q 81.38 122.94 82 109 L 84.5 108 Z " /><path fill="rgb(231,194,95)" stroke="rgb(231,194,95)" stroke-width="0" opacity="0.996078431372549" d="M 180.5 126 L 182 129.5 Q 181 132 176.5 131 L 175.5 129 L 181 130 L 180.5 126 Z " /><path fill="rgb(231,194,95)" stroke="rgb(231,194,95)" stroke-width="0" opacity="0.996078431372549" d="M 156 130 Q 161.38 128.5 163 131.5 Q 163.75 136.25 160.5 137 Q 155.75 137.75 155 134.5 L 156 130 Z " /><path fill="rgb(231,194,95)" stroke="rgb(231,194,95)" stroke-width="0" opacity="0.996078431372549" d="M 133.5 143 L 136 143.5 Q 135.12 146.5 139.5 145 Q 140.5 148 145.5 147 L 147.5 147 L 151.5 146 L 152 147.5 L 151.5 149 L 154.5 147 Q 156.25 149.75 162.5 148 L 163.5 147 L 167 149.5 L 166 147.5 L 174.5 147 L 177 148 Q 175.88 145.33 178.5 146 L 184.5 144 L 188.5 146 L 192 148.5 Q 188.27 153.27 179 152.5 L 180 160 L 176 159.5 L 179 159 Q 180.25 154.4 177.5 153 Q 174.17 154.12 175 151.5 Q 173.75 148.75 172.5 151 L 167 150 Q 168 153 165 152 L 164.5 149 L 164 151 L 159 152 L 158.5 154 L 158 152 L 153.5 153 L 152.5 151 Q 149.75 152.25 152 153.5 L 151.5 156 L 150.5 153 L 148.5 156 L 140.5 159 L 140.5 158 L 149 153.5 L 147.5 150 L 143.5 152 L 144.5 149 Q 138.65 146.92 140 151.5 L 138.5 156 L 138 152.5 L 139 150.5 L 137.5 151 L 131 149.5 L 132.5 149 L 137.5 150 L 137.5 149 Q 134.5 149.75 136 146 L 133.5 146 L 130 147 L 131.5 144 L 133.5 143 Z " /><path fill="rgb(231,194,95)" stroke="rgb(231,194,95)" stroke-width="0" opacity="0.996078431372549" d="M 168.5 152 L 168 153.5 L 169.5 155 L 175 158.5 L 173.5 159 L 167.5 155 L 166 155.5 L 168.5 152 Z " /><path fill="rgb(231,194,95)" stroke="rgb(231,194,95)" stroke-width="0" opacity="0.996078431372549" d="M 152.5 157 L 158.5 165 L 164 160.5 L 165.5 157 L 166 158.5 L 159.5 166 L 153 160.5 L 152.5 157 Z " /><path fill="rgb(231,194,95)" stroke="rgb(231,194,95)" stroke-width="0" opacity="0.996078431372549" d="M 177.5 195 L 178.5 199 L 181 197.5 L 180 200 Q 176.67 198.88 178 203 L 173.5 203 L 171.5 203 L 168 203 L 168 200 Q 165 201.25 166 197.5 L 165.5 196 L 169.5 199 L 171.5 197 Q 173 200.5 174.5 198 L 177 196.5 L 177.5 195 Z " /><path fill="rgb(231,194,95)" stroke="rgb(231,194,95)" stroke-width="0" opacity="0.996078431372549" d="M 140 197 L 145.5 198 L 148 197 Q 146.88 199.67 149.5 199 L 152.5 197 L 153 198.5 L 148.5 204 L 143.5 203 Q 141.75 205.75 140 201.5 L 138 198.5 L 140 198.5 L 140 197 Z " /><path fill="rgb(105,124,66)" stroke="rgb(105,124,66)" stroke-width="0" opacity="0.996078431372549" d="M 158.5 58 Q 161.13 57.33 160 60 L 163.5 60 L 163.5 62 L 166 62.5 Q 162.78 65.28 163.5 72 L 162 68 L 158.5 69 L 154.5 62 L 152.5 63 Q 149.5 61.5 152.5 60 L 158.5 58 Z " /><path fill="rgb(105,124,66)" stroke="rgb(105,124,66)" stroke-width="0" opacity="0.996078431372549" d="M 139.5 76 L 141 81.5 L 139.5 86 L 137 81.5 L 139.5 76 Z " /><path fill="rgb(105,124,66)" stroke="rgb(105,124,66)" stroke-width="0" opacity="0.996078431372549" d="M 144.5 123 L 145.5 125 L 146.5 123 L 147 125.5 L 144.5 129 L 143.5 126 L 140.5 127 L 138.5 126 L 136.5 129 L 135 126.5 L 136 124 L 144 125 L 144.5 123 Z " /><path fill="rgb(105,124,66)" stroke="rgb(105,124,66)" stroke-width="0" opacity="0.996078431372549" d="M 172.5 124 L 174.5 124 L 176.5 125 L 179.5 124 L 181.5 124 L 183.5 125 L 185 124.5 L 182.5 129 L 180.5 126 L 176.5 127 Q 175.25 124.75 174 127.5 L 174.5 129 L 172.5 124 Z " /><path fill="rgb(105,124,66)" stroke="rgb(105,124,66)" stroke-width="0" opacity="0.996078431372549" d="M 104.5 128 L 111.5 136 L 115 137 Q 116.13 139.67 113.5 139 L 109 136 L 104.5 128 Z " /><path fill="rgb(105,124,66)" stroke="rgb(105,124,66)" stroke-width="0" opacity="0.996078431372549" d="M 217.5 128 L 211 135.5 L 211.5 137 L 207 139.5 L 211 140.5 Q 207.25 141.75 208 146 L 204 146.5 L 205 148.5 L 203 152.5 L 204 155 L 209 155 Q 207.88 157.67 210.5 157 L 210.5 158 L 206.5 156 L 208 158.5 Q 208.87 161.5 204.5 160 L 205 161.5 Q 206.5 165.88 203.5 165 L 204 166.5 L 203.5 171 Q 200.71 156.29 190 149.5 L 192 148.5 L 188 146 Q 186.87 143.33 189.5 144 L 196.5 136 L 198 135.5 L 197.5 134 L 200 137.5 L 198 140.5 L 200.5 142 L 202 141.5 L 199.5 146 L 193 148.5 L 196.5 149 L 201.5 147 L 203.5 148 Q 201.92 146.25 205 144.5 L 207 140.5 L 206 138.5 L 215 130.5 L 216.5 129 L 217.5 128 Z " /><path fill="rgb(105,124,66)" stroke="rgb(105,124,66)" stroke-width="0" opacity="0.996078431372549" d="M 124.5 136 L 131 144.5 L 128 146 L 129 148.5 L 118 161.5 Q 115.33 163.83 116 169.5 L 116.5 171 Q 113 169 115 161.5 L 116 159.5 L 114 159.5 L 115 156.5 L 112 154.5 L 118 153.5 L 116 147.5 Q 118.25 146.25 115.5 145 L 113 143.5 L 111 139.5 L 112.5 140 L 114 141.5 L 116 145 Q 118.93 147.86 126.5 147 L 126.5 146 Q 119.62 146.87 118 142.5 L 118.5 140 L 120.5 141 L 122 137 L 124.5 136 Z " /><path fill="rgb(105,124,66)" stroke="rgb(105,124,66)" stroke-width="0" opacity="0.996078431372549" d="M 137.5 141 Q 149.65 147.35 170.5 145 L 182.5 142 L 186 144.5 L 184.5 144 L 177 146 L 178 148.5 L 176.5 148 L 166 147 L 165.5 149 Q 164 145.5 162.5 148 Q 156.25 149.75 154.5 147 L 152 148.5 L 151.5 146 L 147.5 147 L 145.5 147 L 140.5 148 L 139.5 145 Q 135.13 146.5 136 143.5 L 134 143.5 L 137.5 141 Z " /><path fill="rgb(38,55,32)" stroke="rgb(38,55,32)" stroke-width="0" opacity="0.996078431372549" d="M 138.5 113 L 144 114 L 147 122.5 L 145.5 125 L 144.5 123 L 144 125 L 136 124 L 135.5 126 L 135 118.5 L 136.5 116 L 134 117.5 L 132.5 121 L 132 119.5 L 136.5 114 L 138.5 113 Z M 140 115 L 137 118 L 139 121 L 142 120 L 144 121 L 143 117 L 140 115 Z " /><path fill="rgb(38,55,32)" stroke="rgb(38,55,32)" stroke-width="0" opacity="0.996078431372549" d="M 179.5 113 L 185 115 L 187 119.5 L 186 119.5 L 183.5 116 L 183 117.5 L 185 123.5 Q 183.75 126.25 182.5 124 L 180.5 125 L 177.5 124 L 175.5 124 L 173.5 125 Q 170.75 123.75 173 122.5 Q 172.12 115.62 176.5 114 L 179.5 113 Z M 178 115 L 175 116 Q 172 123 179 121 L 181 121 L 182 121 L 181 118 L 178 115 Z " /><path fill="rgb(212,218,151)" stroke="rgb(212,218,151)" stroke-width="0" opacity="0.996078431372549" d="M 155.5 5 Q 163.85 3.65 168 6.5 L 163 9.5 L 163.5 11 L 161.5 10 Q 163.17 12 159.5 14 L 157.5 15 Q 156.25 12.75 155 15.5 L 155.5 17 L 157 16.5 Q 152.82 19.33 152.5 26 L 151.5 23 L 151 26.5 L 152 30.5 L 151 33.5 L 152 33.5 L 152.5 32 L 153 34.5 L 152 36.5 L 154 36.5 L 159.5 44 L 165 46.5 L 164.5 48 L 175.5 47 L 185 43 L 184.5 45 L 182.5 44 L 177.5 50 Q 171.92 54.42 161.5 54 Q 152.46 52.54 147.5 47 L 142.5 48 L 137.5 46 L 133 46.5 L 134 48.5 L 132 47.5 Q 128.75 41.75 129 32.5 Q 131.22 17.72 141.5 11 L 155.5 5 Z " /><path fill="rgb(212,218,151)" stroke="rgb(212,218,151)" stroke-width="0" opacity="0.996078431372549" d="M 134.5 50 L 137 50.5 L 137 52.5 L 139 55.5 L 136 53.5 L 134.5 50 Z " /><path fill="rgb(212,218,151)" stroke="rgb(212,218,151)" stroke-width="0" opacity="0.996078431372549" d="M 181.5 51 L 181 52.5 L 174.5 60 L 172.5 61 L 173.5 59 L 180 53.5 L 181.5 51 Z " /><path fill="rgb(212,218,151)" stroke="rgb(212,218,151)" stroke-width="0" opacity="0.996078431372549" d="M 140.5 56 L 152.5 63 Q 154.25 60.25 156 64.5 L 157 71.5 L 155 76 L 159 76 Q 158 73 161 74 L 162.5 78 L 165.5 77 Q 167.83 79.67 173.5 79 L 173.5 78 L 172 77.5 L 173.5 77 L 179.5 81 Q 180.68 72.68 186.5 69 L 197.5 64 L 204 64 L 203.5 66 L 197.5 65 L 191 67.5 L 194 71.5 L 192 75 L 187.5 78 L 187 76 L 184 76.5 L 184.5 78 L 182.5 75 L 180 82.5 L 181 85.5 L 180.5 87 L 187.5 89 L 189 88.5 L 197 102.5 L 199 117.5 Q 196.13 122.13 197 130.5 L 195 134.5 L 197 133.5 Q 201.54 122.54 210.5 116 Q 220.42 106.92 238.5 106 L 239.5 108 L 233.5 107 L 233.5 108 L 235 108.5 Q 226.5 111 222 117.5 Q 217.48 128.48 209.5 136 L 205 138 L 206 141.5 L 201.5 147 L 197.5 148 L 197.5 147 L 202 144.5 L 203 141 Q 197.8 143.08 199 138.5 L 208.5 135 L 212 131.5 L 213 129.5 L 212 123.5 L 218.5 115 L 221 113.5 L 218.5 112 L 215 114.5 L 215.5 116 L 213.5 115 L 209 118.5 L 209.5 120 L 208.5 119 L 203 124.5 L 194.5 138 L 195 136.5 L 194.5 135 Q 191.25 140 185 141 Q 183.88 143.67 186.5 143 L 187.5 145 Q 185.25 141.25 178.5 142 Q 168.85 146.85 152.5 145 L 137.5 141 L 131.5 144 Q 122.93 137.08 119 125.5 L 109.5 116 L 107.5 115 L 106 115.5 L 106.5 114 L 104 115.5 L 108.5 123 Q 112.67 121.69 111 126.5 L 109.5 126 Q 106.5 125.12 108 129.5 L 109 132 L 121 137.5 L 121 140 Q 116.87 138.33 118 142.5 L 120.5 146 L 115 142.5 Q 116.25 136.42 113.5 137 L 105 128.5 Q 101.58 117.92 93.5 112 L 86.5 108 L 83.5 108 L 82 108.5 Q 84 105 91.5 107 Q 106.7 110.8 116 120.5 L 122.5 130 L 123 123.5 L 122 122.5 L 122 107.5 Q 125.1 95.1 133 87.5 Q 126.22 86.28 123 81.5 L 126.5 84 L 135.5 88 L 140 87 L 141 81.5 L 140 75.5 L 137.5 72 Q 134.75 73.25 137 74.5 L 136.5 76 L 131.5 75 L 129 72.5 L 128 68.5 L 131 66.5 L 129 65.5 L 130.5 65 L 138 70.5 Q 141.54 73.46 141.5 80 L 153 73.5 L 154 66.5 L 150.5 62 Q 142.15 60.93 140.5 56 Z M 164 97 L 160 98 L 159 105 L 160 106 L 162 102 L 167 99 L 168 97 L 166 98 L 164 97 Z M 229 108 L 220 112 Q 221 114 223 112 Q 227 113 226 111 L 228 111 L 232 109 L 229 108 Z M 138 113 L 134 115 L 131 122 L 132 124 L 134 119 L 135 119 L 133 124 L 135 128 L 139 130 L 140 127 Q 144 126 145 129 L 147 126 L 146 117 Q 145 112 138 113 Z M 178 113 L 172 121 Q 171 127 175 129 L 180 127 L 182 130 L 185 126 L 184 119 L 185 117 L 187 125 L 188 125 Q 189 119 186 117 Q 184 112 178 113 Z M 158 129 L 154 131 L 155 135 Q 156 137 158 135 L 157 137 L 161 137 L 160 136 Q 161 133 163 135 L 164 130 L 158 129 Z M 127 137 L 132 143 L 135 142 L 127 137 Z " /><path fill="rgb(212,218,151)" stroke="rgb(212,218,151)" stroke-width="0" opacity="0.996078431372549" d="M 120.5 63 Q 125.94 62.06 128 64.5 L 126.5 65 L 120 64 Q 118.65 74.07 123 79.5 L 121 78.5 Q 118 73.5 119 64.5 L 120.5 63 Z " /><path fill="rgb(212,218,151)" stroke="rgb(212,218,151)" stroke-width="0" opacity="0.996078431372549" d="M 200.5 67 L 202 68.5 L 199.5 73 L 194 75 L 197.5 69 L 200.5 67 Z " /><path fill="rgb(212,218,151)" stroke="rgb(212,218,151)" stroke-width="0" opacity="0.996078431372549" d="M 203.5 70 L 204 74.5 L 197.5 85 L 199 82.5 Q 203.02 78.02 203.5 70 Z " /><path fill="rgb(212,218,151)" stroke="rgb(212,218,151)" stroke-width="0" opacity="0.996078431372549" d="M 191.5 76 Q 195.88 74.5 195 77.5 L 191.5 79 L 190.5 78 L 188 79.5 L 191.5 76 Z " /><path fill="rgb(212,218,151)" stroke="rgb(212,218,151)" stroke-width="0" opacity="0.996078431372549" d="M 139.5 115 L 142 116.5 L 140.5 116 L 138 117.5 Q 136.75 121.25 140.5 120 L 140.5 118 Q 143.5 119.5 140.5 121 L 137 119.5 L 139.5 115 Z " /><path fill="rgb(212,218,151)" stroke="rgb(212,218,151)" stroke-width="0" opacity="0.996078431372549" d="M 176.5 116 L 176 117.5 Q 174.75 121.25 178.5 120 Q 179.75 117.75 181 120.5 L 178.5 121 L 175 119.5 L 176.5 116 Z " /><path fill="rgb(212,218,151)" stroke="rgb(212,218,151)" stroke-width="0" opacity="0.996078431372549" d="M 236.5 126 L 237 128.5 L 236 131.5 L 237 131.5 L 237.5 130 L 238 131.5 L 233.5 140 L 234 138.5 L 235 135.5 L 233.5 136 L 228.5 138 Q 227.25 135 223 136 Q 221.75 133 225.5 134 L 225 132.5 L 226.5 131 L 233.5 127 Q 235 129.5 236.5 126 Z " /><path fill="rgb(212,218,151)" stroke="rgb(212,218,151)" stroke-width="0" opacity="0.996078431372549" d="M 93.5 127 L 97.5 132 L 103 134.5 L 101.5 137 L 99.5 134 L 97 135.5 L 99 136.5 L 97.5 137 L 96 136.5 L 98 140.5 L 94 141 L 93.5 143 L 92 142.5 L 93.5 145 L 95.5 144 L 99.5 150 L 106 153.5 L 103 157.5 L 104.5 157 L 106 157.5 L 103 159.5 L 106 160 L 106 164 Q 103 163 104 166 L 109 163.5 L 108.5 162 L 112 161 L 110.5 164 Q 107.13 163.1 109 168.5 L 110 175 L 112 174.5 L 111.5 173 L 113.5 174 L 117.5 171 L 121 172.5 L 118.5 173 L 116.5 172 Q 111.66 178.66 100.5 179 Q 95.92 175.58 98 165.5 Q 99.56 157.56 105 153.5 Q 96.12 150.37 91 143.5 L 89 140.5 L 90 138.5 L 87 137.5 L 84 128.5 L 85 128.5 L 85.5 131 L 86.5 128 Q 88 131.5 89.5 129 L 93.5 127 Z " /><path fill="rgb(212,218,151)" stroke="rgb(212,218,151)" stroke-width="0" opacity="0.996078431372549" d="M 213.5 140 L 221 143.5 L 217.5 144 L 213.5 140 Z " /><path fill="rgb(212,218,151)" stroke="rgb(212,218,151)" stroke-width="0" opacity="0.996078431372549" d="M 232.5 141 L 224.5 150 L 227 146.5 L 226.5 145 Q 227.75 147.25 229 144.5 Q 226.75 143.25 229.5 142 Q 231 144.5 232.5 141 Z " /><path fill="rgb(212,218,151)" stroke="rgb(212,218,151)" stroke-width="0" opacity="0.996078431372549" d="M 129.5 146 L 132.5 147 L 136 146 Q 134.5 149.75 137.5 149 L 137.5 150 L 133 150.5 L 139.5 152 L 140 149 Q 146.54 148.06 149.5 152 L 150.5 150 L 151 151.5 L 147.5 156 L 150.5 154 L 151.5 156 L 152.5 151 L 153.5 153 L 158 152 L 158.5 154 L 159 152 L 164 151 L 164.5 149 L 166.5 156 L 168 153.5 L 166 148.5 L 167 148.5 L 168.5 150 L 172.5 151 Q 173.75 148.75 175 151.5 Q 174.17 154.12 177.5 153 Q 180.25 154.4 179 159 L 176 159.5 L 180 160 L 179 152.5 Q 186.65 153.15 190.5 150 L 201 162.5 L 202 168.5 L 200.5 171 L 195.5 169 L 195 170.5 L 196 173 Q 201.05 174.25 202.5 171 L 200.5 174 Q 192.17 175.33 188.5 172 L 189 173.5 Q 189.78 182.28 187 187.5 L 177.5 204 L 170.5 205 L 167 202.5 L 166 200.5 L 168 201.5 L 169.5 203 L 175.5 204 L 178 203 L 180 198.5 L 178 198.5 L 177.5 195 L 175.5 198 L 173.5 199 Q 171.5 195 169.5 199 L 166.5 197 L 165.5 199 L 163 192 L 156.5 192 L 156 193.5 Q 154.15 201.15 148.5 205 L 143 204.5 Q 150.21 205.21 152 200.5 L 153 197.5 L 151.5 198 L 148 199 Q 149.13 196.33 146.5 197 L 143.5 198 L 140 197 L 139 199.5 L 142 203.5 L 139 201.5 L 130 181.5 L 130 173.5 L 131 171.5 L 129.5 172 L 122.5 173 L 124 170.5 L 123.5 169 L 118.5 170 L 118.5 168 L 116.5 169 L 117 167.5 L 119 160.5 L 127.5 150 L 130 148.5 L 128 147.5 L 129.5 146 Z " /><path fill="rgb(212,218,151)" stroke="rgb(212,218,151)" stroke-width="0" opacity="0.996078431372549" d="M 222.5 150 L 221.5 152 L 218 153.5 Q 225.52 158.98 225 172.5 L 223 179 Q 213.5 179.25 208 174.5 L 208.5 172 Q 210.25 174.75 212 170.5 L 214 166.5 L 211 165 Q 209.5 160.5 214 162 L 213 164.5 L 216 165 L 215 159.5 L 218 159 L 217 156.5 L 219 156.5 L 217 153.5 L 222.5 150 Z " /><path fill="rgb(253,253,253)" stroke="rgb(253,253,253)" stroke-width="0" opacity="0" d="M 0 0 L 320 0 L 320 213 L 0 213 L 0 0 Z M 156 5 L 142 11 Q 131 18 129 33 Q 129 47 136 54 Q 141 60 151 62 L 154 67 L 153 74 L 142 80 Q 142 73 138 71 L 126 63 Q 120 62 119 65 Q 118 76 123 82 Q 126 86 133 88 Q 125 95 122 108 L 122 123 L 123 124 L 123 130 L 116 121 L 99 109 Q 93 106 84 107 L 81 111 Q 81 132 91 144 Q 96 150 105 154 Q 100 158 98 166 Q 96 176 101 179 Q 112 179 117 172 L 119 173 L 130 172 L 131 172 L 130 174 L 130 182 L 139 202 Q 141 206 149 205 Q 154 201 156 194 L 157 192 L 163 192 L 167 203 L 171 205 L 178 204 L 187 188 Q 190 182 189 174 L 189 172 L 193 174 Q 202 176 204 171 Q 210 179 223 179 L 225 173 Q 226 159 218 154 L 225 150 L 235 139 L 241 119 Q 243 109 239 106 Q 220 107 211 116 L 202 125 L 194 139 L 189 144 L 187 143 Q 184 144 185 141 L 191 139 L 197 131 Q 196 122 199 118 L 197 103 L 189 88 Q 195 89 198 85 Q 206 79 204 64 L 198 64 L 187 69 Q 181 73 180 81 L 168 75 Q 164 72 165 65 L 175 60 Q 183 54 185 43 L 176 47 Q 164 49 160 44 Q 154 40 152 32 Q 152 21 157 16 Q 161 10 169 9 Q 171 10 170 7 Q 165 4 156 5 Z " /><path fill="rgb(253,253,253)" stroke="rgb(253,253,253)" stroke-width="0" opacity="0" d="M 124.5 133 L 127.5 137 L 135 141.5 L 131.5 143 Q 126 139 124.5 133 Z " /></svg>